<svg xmlns="http://www.w3.org/2000/svg" xmlns:xlink="http://www.w3.org/1999/xlink" width="500" zoomAndPan="magnify" viewBox="0 0 375 374.999991" height="500" preserveAspectRatio="xMidYMid meet" version="1.0"><defs><g><g id="id1"/></g><clipPath id="id2"><path d="M 77 123 L 139 123 L 139 217 L 77 217 Z M 77 123 " clip-rule="nonzero"/></clipPath><clipPath id="id3"><path d="M 92.304688 87.878906 L 174.503906 170.082031 L 92.832031 251.75 L 10.632812 169.550781 Z M 92.304688 87.878906 " clip-rule="nonzero"/></clipPath><clipPath id="id4"><path d="M 92.304688 87.878906 L 174.503906 170.082031 L 92.832031 251.75 L 10.632812 169.550781 Z M 92.304688 87.878906 " clip-rule="nonzero"/></clipPath><clipPath id="id5"><path d="M 46 123 L 108 123 L 108 216 L 46 216 Z M 46 123 " clip-rule="nonzero"/></clipPath><clipPath id="id6"><path d="M 92.304688 87.878906 L 174.503906 170.082031 L 92.832031 251.75 L 10.632812 169.550781 Z M 92.304688 87.878906 " clip-rule="nonzero"/></clipPath><clipPath id="id7"><path d="M 92.304688 87.878906 L 174.503906 170.082031 L 92.832031 251.75 L 10.632812 169.550781 Z M 92.304688 87.878906 " clip-rule="nonzero"/></clipPath><clipPath id="id8"><path d="M 77 145 L 108 145 L 108 195 L 77 195 Z M 77 145 " clip-rule="nonzero"/></clipPath><clipPath id="id9"><path d="M 92.304688 87.878906 L 174.503906 170.082031 L 92.832031 251.75 L 10.632812 169.550781 Z M 92.304688 87.878906 " clip-rule="nonzero"/></clipPath><clipPath id="id10"><path d="M 92.304688 87.878906 L 174.503906 170.082031 L 92.832031 251.75 L 10.632812 169.550781 Z M 92.304688 87.878906 " clip-rule="nonzero"/></clipPath><clipPath id="id11"><path d="M 14.578125 91.996094 L 170.578125 91.996094 L 170.578125 247.996094 L 14.578125 247.996094 Z M 14.578125 91.996094 " clip-rule="nonzero"/></clipPath><clipPath id="id12"><path d="M 92.578125 247.996094 C 49.601562 247.996094 14.578125 212.96875 14.578125 169.996094 C 14.578125 127.023438 49.601562 91.996094 92.578125 91.996094 C 135.550781 91.996094 170.578125 127.023438 170.578125 169.996094 C 170.578125 212.96875 135.550781 247.996094 92.578125 247.996094 Z M 92.578125 106.714844 C 57.695312 106.714844 29.292969 135.117188 29.292969 169.996094 C 29.292969 204.875 57.695312 233.28125 92.578125 233.28125 C 127.457031 233.28125 155.859375 204.875 155.859375 169.996094 C 155.859375 135.117188 127.457031 106.714844 92.578125 106.714844 Z M 92.578125 106.714844 " clip-rule="nonzero"/></clipPath><linearGradient x1="-0.000000249605" gradientTransform="matrix(1.471698, 0, 0, 1.471698, 14.576227, 91.997068)" y1="53.005001" x2="105.999997" gradientUnits="userSpaceOnUse" y2="53.005001" xlink:type="simple" xlink:actuate="onLoad" id="id13" xlink:show="other"><stop stop-opacity="1" stop-color="rgb(23.498535%, 70.999146%, 79.598999%)" offset="0"/><stop stop-opacity="1" stop-color="rgb(23.716736%, 71.06781%, 79.440308%)" offset="0.00390625"/><stop stop-opacity="1" stop-color="rgb(23.934937%, 71.138%, 79.283142%)" offset="0.0078125"/><stop stop-opacity="1" stop-color="rgb(24.153137%, 71.206665%, 79.124451%)" offset="0.0117188"/><stop stop-opacity="1" stop-color="rgb(24.371338%, 71.276855%, 78.967285%)" offset="0.015625"/><stop stop-opacity="1" stop-color="rgb(24.589539%, 71.34552%, 78.81012%)" offset="0.0195313"/><stop stop-opacity="1" stop-color="rgb(24.807739%, 71.41571%, 78.652954%)" offset="0.0234375"/><stop stop-opacity="1" stop-color="rgb(25.02594%, 71.484375%, 78.494263%)" offset="0.0273438"/><stop stop-opacity="1" stop-color="rgb(25.244141%, 71.554565%, 78.337097%)" offset="0.03125"/><stop stop-opacity="1" stop-color="rgb(25.462341%, 71.62323%, 78.178406%)" offset="0.0351562"/><stop stop-opacity="1" stop-color="rgb(25.680542%, 71.69342%, 78.02124%)" offset="0.0390625"/><stop stop-opacity="1" stop-color="rgb(25.898743%, 71.762085%, 77.862549%)" offset="0.0429688"/><stop stop-opacity="1" stop-color="rgb(26.116943%, 71.832275%, 77.705383%)" offset="0.046875"/><stop stop-opacity="1" stop-color="rgb(26.335144%, 71.90094%, 77.546692%)" offset="0.0507813"/><stop stop-opacity="1" stop-color="rgb(26.553345%, 71.97113%, 77.389526%)" offset="0.0546875"/><stop stop-opacity="1" stop-color="rgb(26.771545%, 72.039795%, 77.230835%)" offset="0.0585938"/><stop stop-opacity="1" stop-color="rgb(26.989746%, 72.109985%, 77.073669%)" offset="0.0625"/><stop stop-opacity="1" stop-color="rgb(27.207947%, 72.17865%, 76.916504%)" offset="0.0664062"/><stop stop-opacity="1" stop-color="rgb(27.426147%, 72.24884%, 76.759338%)" offset="0.0703125"/><stop stop-opacity="1" stop-color="rgb(27.644348%, 72.317505%, 76.600647%)" offset="0.0742188"/><stop stop-opacity="1" stop-color="rgb(27.862549%, 72.387695%, 76.443481%)" offset="0.078125"/><stop stop-opacity="1" stop-color="rgb(28.08075%, 72.45636%, 76.28479%)" offset="0.0820313"/><stop stop-opacity="1" stop-color="rgb(28.29895%, 72.52655%, 76.127625%)" offset="0.0859375"/><stop stop-opacity="1" stop-color="rgb(28.517151%, 72.595215%, 75.968933%)" offset="0.0898438"/><stop stop-opacity="1" stop-color="rgb(28.735352%, 72.665405%, 75.811768%)" offset="0.09375"/><stop stop-opacity="1" stop-color="rgb(28.953552%, 72.73407%, 75.653076%)" offset="0.0976563"/><stop stop-opacity="1" stop-color="rgb(29.171753%, 72.80426%, 75.495911%)" offset="0.101563"/><stop stop-opacity="1" stop-color="rgb(29.389954%, 72.872925%, 75.337219%)" offset="0.105469"/><stop stop-opacity="1" stop-color="rgb(29.608154%, 72.943115%, 75.180054%)" offset="0.109375"/><stop stop-opacity="1" stop-color="rgb(29.826355%, 73.01178%, 75.021362%)" offset="0.113281"/><stop stop-opacity="1" stop-color="rgb(30.044556%, 73.08197%, 74.864197%)" offset="0.117188"/><stop stop-opacity="1" stop-color="rgb(30.262756%, 73.150635%, 74.707031%)" offset="0.121094"/><stop stop-opacity="1" stop-color="rgb(30.480957%, 73.220825%, 74.549866%)" offset="0.125"/><stop stop-opacity="1" stop-color="rgb(30.699158%, 73.28949%, 74.391174%)" offset="0.128906"/><stop stop-opacity="1" stop-color="rgb(30.917358%, 73.35968%, 74.234009%)" offset="0.132812"/><stop stop-opacity="1" stop-color="rgb(31.135559%, 73.428345%, 74.075317%)" offset="0.136719"/><stop stop-opacity="1" stop-color="rgb(31.35376%, 73.498535%, 73.918152%)" offset="0.140625"/><stop stop-opacity="1" stop-color="rgb(31.57196%, 73.5672%, 73.75946%)" offset="0.144531"/><stop stop-opacity="1" stop-color="rgb(31.790161%, 73.63739%, 73.602295%)" offset="0.148438"/><stop stop-opacity="1" stop-color="rgb(32.008362%, 73.706055%, 73.443604%)" offset="0.152344"/><stop stop-opacity="1" stop-color="rgb(32.226562%, 73.776245%, 73.286438%)" offset="0.15625"/><stop stop-opacity="1" stop-color="rgb(32.444763%, 73.84491%, 73.127747%)" offset="0.160156"/><stop stop-opacity="1" stop-color="rgb(32.662964%, 73.9151%, 72.970581%)" offset="0.164063"/><stop stop-opacity="1" stop-color="rgb(32.881165%, 73.983765%, 72.81189%)" offset="0.167969"/><stop stop-opacity="1" stop-color="rgb(33.099365%, 74.053955%, 72.654724%)" offset="0.171875"/><stop stop-opacity="1" stop-color="rgb(33.317566%, 74.12262%, 72.497559%)" offset="0.175781"/><stop stop-opacity="1" stop-color="rgb(33.535767%, 74.19281%, 72.340393%)" offset="0.179688"/><stop stop-opacity="1" stop-color="rgb(33.753967%, 74.261475%, 72.181702%)" offset="0.183594"/><stop stop-opacity="1" stop-color="rgb(33.972168%, 74.331665%, 72.024536%)" offset="0.1875"/><stop stop-opacity="1" stop-color="rgb(34.190369%, 74.40033%, 71.865845%)" offset="0.191406"/><stop stop-opacity="1" stop-color="rgb(34.408569%, 74.47052%, 71.708679%)" offset="0.195312"/><stop stop-opacity="1" stop-color="rgb(34.62677%, 74.539185%, 71.549988%)" offset="0.199219"/><stop stop-opacity="1" stop-color="rgb(34.844971%, 74.609375%, 71.392822%)" offset="0.203125"/><stop stop-opacity="1" stop-color="rgb(35.063171%, 74.67804%, 71.234131%)" offset="0.207031"/><stop stop-opacity="1" stop-color="rgb(35.281372%, 74.74823%, 71.076965%)" offset="0.210938"/><stop stop-opacity="1" stop-color="rgb(35.499573%, 74.816895%, 70.918274%)" offset="0.214844"/><stop stop-opacity="1" stop-color="rgb(35.717773%, 74.887085%, 70.761108%)" offset="0.21875"/><stop stop-opacity="1" stop-color="rgb(35.935974%, 74.95575%, 70.603943%)" offset="0.222656"/><stop stop-opacity="1" stop-color="rgb(36.154175%, 75.02594%, 70.446777%)" offset="0.226562"/><stop stop-opacity="1" stop-color="rgb(36.372375%, 75.094604%, 70.288086%)" offset="0.230469"/><stop stop-opacity="1" stop-color="rgb(36.590576%, 75.164795%, 70.13092%)" offset="0.234375"/><stop stop-opacity="1" stop-color="rgb(36.807251%, 75.233459%, 69.972229%)" offset="0.238281"/><stop stop-opacity="1" stop-color="rgb(37.025452%, 75.30365%, 69.815063%)" offset="0.242187"/><stop stop-opacity="1" stop-color="rgb(37.243652%, 75.372314%, 69.656372%)" offset="0.246094"/><stop stop-opacity="1" stop-color="rgb(37.461853%, 75.442505%, 69.499207%)" offset="0.25"/><stop stop-opacity="1" stop-color="rgb(37.680054%, 75.512695%, 69.340515%)" offset="0.253906"/><stop stop-opacity="1" stop-color="rgb(37.898254%, 75.582886%, 69.18335%)" offset="0.257812"/><stop stop-opacity="1" stop-color="rgb(38.116455%, 75.65155%, 69.024658%)" offset="0.261719"/><stop stop-opacity="1" stop-color="rgb(38.334656%, 75.721741%, 68.867493%)" offset="0.265625"/><stop stop-opacity="1" stop-color="rgb(38.552856%, 75.790405%, 68.708801%)" offset="0.269531"/><stop stop-opacity="1" stop-color="rgb(38.771057%, 75.860596%, 68.551636%)" offset="0.273438"/><stop stop-opacity="1" stop-color="rgb(38.989258%, 75.92926%, 68.39447%)" offset="0.277344"/><stop stop-opacity="1" stop-color="rgb(39.207458%, 75.999451%, 68.237305%)" offset="0.28125"/><stop stop-opacity="1" stop-color="rgb(39.425659%, 76.068115%, 68.078613%)" offset="0.285156"/><stop stop-opacity="1" stop-color="rgb(39.64386%, 76.138306%, 67.921448%)" offset="0.289062"/><stop stop-opacity="1" stop-color="rgb(39.862061%, 76.20697%, 67.762756%)" offset="0.292969"/><stop stop-opacity="1" stop-color="rgb(40.080261%, 76.277161%, 67.605591%)" offset="0.296875"/><stop stop-opacity="1" stop-color="rgb(40.298462%, 76.345825%, 67.446899%)" offset="0.300781"/><stop stop-opacity="1" stop-color="rgb(40.516663%, 76.416016%, 67.289734%)" offset="0.304688"/><stop stop-opacity="1" stop-color="rgb(40.734863%, 76.48468%, 67.131042%)" offset="0.308594"/><stop stop-opacity="1" stop-color="rgb(40.953064%, 76.554871%, 66.973877%)" offset="0.3125"/><stop stop-opacity="1" stop-color="rgb(41.171265%, 76.623535%, 66.815186%)" offset="0.316406"/><stop stop-opacity="1" stop-color="rgb(41.389465%, 76.693726%, 66.65802%)" offset="0.320313"/><stop stop-opacity="1" stop-color="rgb(41.607666%, 76.76239%, 66.499329%)" offset="0.324219"/><stop stop-opacity="1" stop-color="rgb(41.825867%, 76.832581%, 66.342163%)" offset="0.328125"/><stop stop-opacity="1" stop-color="rgb(42.044067%, 76.901245%, 66.184998%)" offset="0.332031"/><stop stop-opacity="1" stop-color="rgb(42.262268%, 76.971436%, 66.027832%)" offset="0.335938"/><stop stop-opacity="1" stop-color="rgb(42.480469%, 77.0401%, 65.869141%)" offset="0.339844"/><stop stop-opacity="1" stop-color="rgb(42.698669%, 77.110291%, 65.711975%)" offset="0.34375"/><stop stop-opacity="1" stop-color="rgb(42.91687%, 77.178955%, 65.553284%)" offset="0.347656"/><stop stop-opacity="1" stop-color="rgb(43.135071%, 77.249146%, 65.396118%)" offset="0.351562"/><stop stop-opacity="1" stop-color="rgb(43.353271%, 77.31781%, 65.237427%)" offset="0.355469"/><stop stop-opacity="1" stop-color="rgb(43.571472%, 77.388%, 65.080261%)" offset="0.359375"/><stop stop-opacity="1" stop-color="rgb(43.789673%, 77.456665%, 64.92157%)" offset="0.363281"/><stop stop-opacity="1" stop-color="rgb(44.007874%, 77.526855%, 64.764404%)" offset="0.367188"/><stop stop-opacity="1" stop-color="rgb(44.226074%, 77.59552%, 64.605713%)" offset="0.371094"/><stop stop-opacity="1" stop-color="rgb(44.444275%, 77.66571%, 64.448547%)" offset="0.375"/><stop stop-opacity="1" stop-color="rgb(44.662476%, 77.734375%, 64.291382%)" offset="0.378906"/><stop stop-opacity="1" stop-color="rgb(44.880676%, 77.804565%, 64.134216%)" offset="0.382812"/><stop stop-opacity="1" stop-color="rgb(45.098877%, 77.87323%, 63.975525%)" offset="0.386719"/><stop stop-opacity="1" stop-color="rgb(45.317078%, 77.94342%, 63.818359%)" offset="0.390625"/><stop stop-opacity="1" stop-color="rgb(45.535278%, 78.012085%, 63.659668%)" offset="0.394531"/><stop stop-opacity="1" stop-color="rgb(45.753479%, 78.082275%, 63.502502%)" offset="0.398438"/><stop stop-opacity="1" stop-color="rgb(45.97168%, 78.15094%, 63.343811%)" offset="0.402344"/><stop stop-opacity="1" stop-color="rgb(46.18988%, 78.22113%, 63.186646%)" offset="0.40625"/><stop stop-opacity="1" stop-color="rgb(46.408081%, 78.289795%, 63.027954%)" offset="0.410156"/><stop stop-opacity="1" stop-color="rgb(46.626282%, 78.359985%, 62.870789%)" offset="0.414062"/><stop stop-opacity="1" stop-color="rgb(46.844482%, 78.42865%, 62.712097%)" offset="0.417969"/><stop stop-opacity="1" stop-color="rgb(47.062683%, 78.49884%, 62.554932%)" offset="0.421875"/><stop stop-opacity="1" stop-color="rgb(47.280884%, 78.567505%, 62.39624%)" offset="0.425781"/><stop stop-opacity="1" stop-color="rgb(47.499084%, 78.637695%, 62.239075%)" offset="0.429688"/><stop stop-opacity="1" stop-color="rgb(47.717285%, 78.70636%, 62.081909%)" offset="0.433594"/><stop stop-opacity="1" stop-color="rgb(47.935486%, 78.77655%, 61.924744%)" offset="0.4375"/><stop stop-opacity="1" stop-color="rgb(48.153687%, 78.845215%, 61.766052%)" offset="0.441406"/><stop stop-opacity="1" stop-color="rgb(48.371887%, 78.915405%, 61.608887%)" offset="0.445312"/><stop stop-opacity="1" stop-color="rgb(48.590088%, 78.98407%, 61.450195%)" offset="0.449219"/><stop stop-opacity="1" stop-color="rgb(48.808289%, 79.05426%, 61.29303%)" offset="0.453125"/><stop stop-opacity="1" stop-color="rgb(49.026489%, 79.122925%, 61.134338%)" offset="0.457031"/><stop stop-opacity="1" stop-color="rgb(49.24469%, 79.193115%, 60.977173%)" offset="0.460937"/><stop stop-opacity="1" stop-color="rgb(49.462891%, 79.26178%, 60.818481%)" offset="0.464844"/><stop stop-opacity="1" stop-color="rgb(49.681091%, 79.33197%, 60.661316%)" offset="0.46875"/><stop stop-opacity="1" stop-color="rgb(49.899292%, 79.400635%, 60.502625%)" offset="0.472656"/><stop stop-opacity="1" stop-color="rgb(50.117493%, 79.470825%, 60.345459%)" offset="0.476562"/><stop stop-opacity="1" stop-color="rgb(50.335693%, 79.53949%, 60.188293%)" offset="0.480469"/><stop stop-opacity="1" stop-color="rgb(50.553894%, 79.60968%, 60.031128%)" offset="0.484375"/><stop stop-opacity="1" stop-color="rgb(50.772095%, 79.678345%, 59.872437%)" offset="0.488281"/><stop stop-opacity="1" stop-color="rgb(50.990295%, 79.748535%, 59.715271%)" offset="0.492187"/><stop stop-opacity="1" stop-color="rgb(51.20697%, 79.8172%, 59.55658%)" offset="0.496094"/><stop stop-opacity="1" stop-color="rgb(51.425171%, 79.88739%, 59.399414%)" offset="0.5"/><stop stop-opacity="1" stop-color="rgb(51.643372%, 79.956055%, 59.240723%)" offset="0.503906"/><stop stop-opacity="1" stop-color="rgb(51.861572%, 80.026245%, 59.083557%)" offset="0.507812"/><stop stop-opacity="1" stop-color="rgb(52.079773%, 80.09491%, 58.924866%)" offset="0.511719"/><stop stop-opacity="1" stop-color="rgb(52.297974%, 80.1651%, 58.7677%)" offset="0.515625"/><stop stop-opacity="1" stop-color="rgb(52.516174%, 80.233765%, 58.609009%)" offset="0.519531"/><stop stop-opacity="1" stop-color="rgb(52.734375%, 80.303955%, 58.451843%)" offset="0.523438"/><stop stop-opacity="1" stop-color="rgb(52.952576%, 80.37262%, 58.293152%)" offset="0.527344"/><stop stop-opacity="1" stop-color="rgb(53.170776%, 80.44281%, 58.135986%)" offset="0.53125"/><stop stop-opacity="1" stop-color="rgb(53.388977%, 80.511475%, 57.978821%)" offset="0.535156"/><stop stop-opacity="1" stop-color="rgb(53.607178%, 80.581665%, 57.821655%)" offset="0.539062"/><stop stop-opacity="1" stop-color="rgb(53.825378%, 80.65033%, 57.662964%)" offset="0.542969"/><stop stop-opacity="1" stop-color="rgb(54.043579%, 80.72052%, 57.505798%)" offset="0.546875"/><stop stop-opacity="1" stop-color="rgb(54.26178%, 80.789185%, 57.347107%)" offset="0.550781"/><stop stop-opacity="1" stop-color="rgb(54.47998%, 80.859375%, 57.189941%)" offset="0.554688"/><stop stop-opacity="1" stop-color="rgb(54.698181%, 80.92804%, 57.03125%)" offset="0.558594"/><stop stop-opacity="1" stop-color="rgb(54.916382%, 80.99823%, 56.874084%)" offset="0.5625"/><stop stop-opacity="1" stop-color="rgb(55.134583%, 81.066895%, 56.715393%)" offset="0.566406"/><stop stop-opacity="1" stop-color="rgb(55.352783%, 81.137085%, 56.558228%)" offset="0.570312"/><stop stop-opacity="1" stop-color="rgb(55.570984%, 81.20575%, 56.399536%)" offset="0.574219"/><stop stop-opacity="1" stop-color="rgb(55.789185%, 81.27594%, 56.242371%)" offset="0.578125"/><stop stop-opacity="1" stop-color="rgb(56.007385%, 81.344604%, 56.083679%)" offset="0.582031"/><stop stop-opacity="1" stop-color="rgb(56.225586%, 81.414795%, 55.926514%)" offset="0.585938"/><stop stop-opacity="1" stop-color="rgb(56.443787%, 81.483459%, 55.769348%)" offset="0.589844"/><stop stop-opacity="1" stop-color="rgb(56.661987%, 81.55365%, 55.612183%)" offset="0.59375"/><stop stop-opacity="1" stop-color="rgb(56.880188%, 81.622314%, 55.453491%)" offset="0.597656"/><stop stop-opacity="1" stop-color="rgb(57.098389%, 81.692505%, 55.296326%)" offset="0.601562"/><stop stop-opacity="1" stop-color="rgb(57.316589%, 81.761169%, 55.137634%)" offset="0.605469"/><stop stop-opacity="1" stop-color="rgb(57.53479%, 81.83136%, 54.980469%)" offset="0.609375"/><stop stop-opacity="1" stop-color="rgb(57.752991%, 81.900024%, 54.821777%)" offset="0.613281"/><stop stop-opacity="1" stop-color="rgb(57.971191%, 81.970215%, 54.664612%)" offset="0.617188"/><stop stop-opacity="1" stop-color="rgb(58.189392%, 82.038879%, 54.50592%)" offset="0.621094"/><stop stop-opacity="1" stop-color="rgb(58.407593%, 82.10907%, 54.348755%)" offset="0.625"/><stop stop-opacity="1" stop-color="rgb(58.625793%, 82.177734%, 54.190063%)" offset="0.628906"/><stop stop-opacity="1" stop-color="rgb(58.843994%, 82.247925%, 54.032898%)" offset="0.632812"/><stop stop-opacity="1" stop-color="rgb(59.062195%, 82.316589%, 53.875732%)" offset="0.636719"/><stop stop-opacity="1" stop-color="rgb(59.280396%, 82.38678%, 53.718567%)" offset="0.640625"/><stop stop-opacity="1" stop-color="rgb(59.498596%, 82.455444%, 53.559875%)" offset="0.644531"/><stop stop-opacity="1" stop-color="rgb(59.716797%, 82.525635%, 53.40271%)" offset="0.648438"/><stop stop-opacity="1" stop-color="rgb(59.934998%, 82.594299%, 53.244019%)" offset="0.652344"/><stop stop-opacity="1" stop-color="rgb(60.153198%, 82.66449%, 53.086853%)" offset="0.65625"/><stop stop-opacity="1" stop-color="rgb(60.371399%, 82.733154%, 52.928162%)" offset="0.660156"/><stop stop-opacity="1" stop-color="rgb(60.5896%, 82.803345%, 52.770996%)" offset="0.664062"/><stop stop-opacity="1" stop-color="rgb(60.8078%, 82.872009%, 52.612305%)" offset="0.667969"/><stop stop-opacity="1" stop-color="rgb(61.026001%, 82.9422%, 52.455139%)" offset="0.671875"/><stop stop-opacity="1" stop-color="rgb(61.244202%, 83.010864%, 52.296448%)" offset="0.675781"/><stop stop-opacity="1" stop-color="rgb(61.462402%, 83.081055%, 52.139282%)" offset="0.679688"/><stop stop-opacity="1" stop-color="rgb(61.680603%, 83.149719%, 51.980591%)" offset="0.683594"/><stop stop-opacity="1" stop-color="rgb(61.898804%, 83.21991%, 51.823425%)" offset="0.6875"/><stop stop-opacity="1" stop-color="rgb(62.117004%, 83.288574%, 51.66626%)" offset="0.691406"/><stop stop-opacity="1" stop-color="rgb(62.335205%, 83.358765%, 51.509094%)" offset="0.695312"/><stop stop-opacity="1" stop-color="rgb(62.553406%, 83.427429%, 51.350403%)" offset="0.699219"/><stop stop-opacity="1" stop-color="rgb(62.771606%, 83.49762%, 51.193237%)" offset="0.703125"/><stop stop-opacity="1" stop-color="rgb(62.989807%, 83.566284%, 51.034546%)" offset="0.707031"/><stop stop-opacity="1" stop-color="rgb(63.208008%, 83.636475%, 50.87738%)" offset="0.710937"/><stop stop-opacity="1" stop-color="rgb(63.426208%, 83.705139%, 50.718689%)" offset="0.714844"/><stop stop-opacity="1" stop-color="rgb(63.644409%, 83.77533%, 50.561523%)" offset="0.71875"/><stop stop-opacity="1" stop-color="rgb(63.86261%, 83.843994%, 50.402832%)" offset="0.722656"/><stop stop-opacity="1" stop-color="rgb(64.080811%, 83.914185%, 50.245667%)" offset="0.726562"/><stop stop-opacity="1" stop-color="rgb(64.299011%, 83.982849%, 50.086975%)" offset="0.730469"/><stop stop-opacity="1" stop-color="rgb(64.517212%, 84.05304%, 49.92981%)" offset="0.734375"/><stop stop-opacity="1" stop-color="rgb(64.735413%, 84.121704%, 49.771118%)" offset="0.738281"/><stop stop-opacity="1" stop-color="rgb(64.953613%, 84.191895%, 49.613953%)" offset="0.742187"/><stop stop-opacity="1" stop-color="rgb(65.170288%, 84.260559%, 49.456787%)" offset="0.746094"/><stop stop-opacity="1" stop-color="rgb(65.388489%, 84.33075%, 49.299622%)" offset="0.75"/><stop stop-opacity="1" stop-color="rgb(65.606689%, 84.399414%, 49.14093%)" offset="0.753906"/><stop stop-opacity="1" stop-color="rgb(65.82489%, 84.469604%, 48.983765%)" offset="0.757813"/><stop stop-opacity="1" stop-color="rgb(66.043091%, 84.538269%, 48.825073%)" offset="0.761719"/><stop stop-opacity="1" stop-color="rgb(66.261292%, 84.608459%, 48.667908%)" offset="0.765625"/><stop stop-opacity="1" stop-color="rgb(66.479492%, 84.677124%, 48.509216%)" offset="0.769531"/><stop stop-opacity="1" stop-color="rgb(66.697693%, 84.747314%, 48.352051%)" offset="0.773438"/><stop stop-opacity="1" stop-color="rgb(66.915894%, 84.815979%, 48.193359%)" offset="0.777344"/><stop stop-opacity="1" stop-color="rgb(67.134094%, 84.886169%, 48.036194%)" offset="0.78125"/><stop stop-opacity="1" stop-color="rgb(67.352295%, 84.954834%, 47.877502%)" offset="0.785156"/><stop stop-opacity="1" stop-color="rgb(67.570496%, 85.025024%, 47.720337%)" offset="0.789063"/><stop stop-opacity="1" stop-color="rgb(67.788696%, 85.093689%, 47.563171%)" offset="0.792969"/><stop stop-opacity="1" stop-color="rgb(68.006897%, 85.163879%, 47.406006%)" offset="0.796875"/><stop stop-opacity="1" stop-color="rgb(68.225098%, 85.232544%, 47.247314%)" offset="0.800781"/><stop stop-opacity="1" stop-color="rgb(68.443298%, 85.302734%, 47.090149%)" offset="0.804688"/><stop stop-opacity="1" stop-color="rgb(68.661499%, 85.371399%, 46.931458%)" offset="0.808594"/><stop stop-opacity="1" stop-color="rgb(68.8797%, 85.441589%, 46.774292%)" offset="0.8125"/><stop stop-opacity="1" stop-color="rgb(69.0979%, 85.510254%, 46.615601%)" offset="0.816406"/><stop stop-opacity="1" stop-color="rgb(69.316101%, 85.580444%, 46.458435%)" offset="0.820313"/><stop stop-opacity="1" stop-color="rgb(69.534302%, 85.650635%, 46.299744%)" offset="0.824219"/><stop stop-opacity="1" stop-color="rgb(69.752502%, 85.720825%, 46.142578%)" offset="0.828125"/><stop stop-opacity="1" stop-color="rgb(69.970703%, 85.78949%, 45.983887%)" offset="0.832031"/><stop stop-opacity="1" stop-color="rgb(70.188904%, 85.85968%, 45.826721%)" offset="0.835938"/><stop stop-opacity="1" stop-color="rgb(70.407104%, 85.928345%, 45.66803%)" offset="0.839844"/><stop stop-opacity="1" stop-color="rgb(70.625305%, 85.998535%, 45.510864%)" offset="0.84375"/><stop stop-opacity="1" stop-color="rgb(70.843506%, 86.0672%, 45.353699%)" offset="0.847656"/><stop stop-opacity="1" stop-color="rgb(71.061707%, 86.13739%, 45.196533%)" offset="0.851563"/><stop stop-opacity="1" stop-color="rgb(71.279907%, 86.206055%, 45.037842%)" offset="0.855469"/><stop stop-opacity="1" stop-color="rgb(71.498108%, 86.276245%, 44.880676%)" offset="0.859375"/><stop stop-opacity="1" stop-color="rgb(71.716309%, 86.34491%, 44.721985%)" offset="0.863281"/><stop stop-opacity="1" stop-color="rgb(71.934509%, 86.4151%, 44.564819%)" offset="0.867188"/><stop stop-opacity="1" stop-color="rgb(72.15271%, 86.483765%, 44.406128%)" offset="0.871094"/><stop stop-opacity="1" stop-color="rgb(72.370911%, 86.553955%, 44.248962%)" offset="0.875"/><stop stop-opacity="1" stop-color="rgb(72.589111%, 86.62262%, 44.090271%)" offset="0.878906"/><stop stop-opacity="1" stop-color="rgb(72.807312%, 86.69281%, 43.933105%)" offset="0.882813"/><stop stop-opacity="1" stop-color="rgb(73.025513%, 86.761475%, 43.774414%)" offset="0.886719"/><stop stop-opacity="1" stop-color="rgb(73.243713%, 86.831665%, 43.617249%)" offset="0.890625"/><stop stop-opacity="1" stop-color="rgb(73.461914%, 86.90033%, 43.460083%)" offset="0.894531"/><stop stop-opacity="1" stop-color="rgb(73.680115%, 86.97052%, 43.302917%)" offset="0.898438"/><stop stop-opacity="1" stop-color="rgb(73.898315%, 87.039185%, 43.144226%)" offset="0.902344"/><stop stop-opacity="1" stop-color="rgb(74.116516%, 87.109375%, 42.987061%)" offset="0.90625"/><stop stop-opacity="1" stop-color="rgb(74.334717%, 87.17804%, 42.828369%)" offset="0.910156"/><stop stop-opacity="1" stop-color="rgb(74.552917%, 87.24823%, 42.671204%)" offset="0.914062"/><stop stop-opacity="1" stop-color="rgb(74.771118%, 87.316895%, 42.512512%)" offset="0.917969"/><stop stop-opacity="1" stop-color="rgb(74.989319%, 87.387085%, 42.355347%)" offset="0.921875"/><stop stop-opacity="1" stop-color="rgb(75.20752%, 87.45575%, 42.196655%)" offset="0.925781"/><stop stop-opacity="1" stop-color="rgb(75.42572%, 87.52594%, 42.03949%)" offset="0.929688"/><stop stop-opacity="1" stop-color="rgb(75.643921%, 87.594604%, 41.880798%)" offset="0.933594"/><stop stop-opacity="1" stop-color="rgb(75.862122%, 87.664795%, 41.723633%)" offset="0.9375"/><stop stop-opacity="1" stop-color="rgb(76.080322%, 87.733459%, 41.564941%)" offset="0.941406"/><stop stop-opacity="1" stop-color="rgb(76.298523%, 87.80365%, 41.407776%)" offset="0.945312"/><stop stop-opacity="1" stop-color="rgb(76.516724%, 87.872314%, 41.25061%)" offset="0.949219"/><stop stop-opacity="1" stop-color="rgb(76.734924%, 87.942505%, 41.093445%)" offset="0.953125"/><stop stop-opacity="1" stop-color="rgb(76.953125%, 88.011169%, 40.934753%)" offset="0.957031"/><stop stop-opacity="1" stop-color="rgb(77.171326%, 88.08136%, 40.777588%)" offset="0.960938"/><stop stop-opacity="1" stop-color="rgb(77.389526%, 88.150024%, 40.618896%)" offset="0.964844"/><stop stop-opacity="1" stop-color="rgb(77.607727%, 88.220215%, 40.461731%)" offset="0.96875"/><stop stop-opacity="1" stop-color="rgb(77.825928%, 88.288879%, 40.30304%)" offset="0.972656"/><stop stop-opacity="1" stop-color="rgb(78.044128%, 88.35907%, 40.145874%)" offset="0.976562"/><stop stop-opacity="1" stop-color="rgb(78.262329%, 88.427734%, 39.987183%)" offset="0.980469"/><stop stop-opacity="1" stop-color="rgb(78.48053%, 88.497925%, 39.830017%)" offset="0.984375"/><stop stop-opacity="1" stop-color="rgb(78.639221%, 88.548279%, 39.71405%)" offset="1"/></linearGradient><clipPath id="id14"><path d="M 337.5 183.753906 L 351 183.753906 L 351 191.253906 L 337.5 191.253906 Z M 337.5 183.753906 " clip-rule="nonzero"/></clipPath></defs><g clip-path="url(#id2)"><g clip-path="url(#id3)"><g clip-path="url(#id4)"><path fill="rgb(40.388489%, 86.268616%, 100%)" d="M 133.566406 210.972656 C 126.777344 217.761719 115.773438 217.746094 108.964844 210.9375 L 83.734375 185.707031 C 75.015625 176.988281 74.992188 162.84375 83.691406 154.148438 L 108.847656 128.992188 C 115.636719 122.203125 126.640625 122.21875 133.449219 129.027344 C 140.257812 135.832031 140.273438 146.839844 133.484375 153.628906 L 117.136719 169.976562 L 133.53125 186.371094 C 140.339844 193.175781 140.332031 204.207031 133.566406 210.972656 Z M 133.566406 210.972656 " fill-opacity="1" fill-rule="nonzero"/></g></g></g><g clip-path="url(#id5)"><g clip-path="url(#id6)"><g clip-path="url(#id7)"><path fill="rgb(78.819275%, 88.62915%, 39.608765%)" d="M 51.570312 128.660156 C 58.359375 121.871094 69.363281 121.886719 76.171875 128.695312 L 92.566406 145.089844 L 101.402344 153.921875 C 110.121094 162.644531 110.144531 176.785156 101.445312 185.484375 L 76.289062 210.640625 C 69.5 217.429688 58.496094 217.414062 51.6875 210.605469 C 44.878906 203.796875 44.863281 192.792969 51.652344 186.003906 L 68 169.65625 L 51.605469 153.261719 C 44.796875 146.453125 44.78125 135.449219 51.570312 128.660156 Z M 51.570312 128.660156 " fill-opacity="1" fill-rule="nonzero"/></g></g></g><g clip-path="url(#id8)"><g clip-path="url(#id9)"><g clip-path="url(#id10)"><path fill="rgb(15.289307%, 12.548828%, 100%)" d="M 101.445312 185.484375 L 92.476562 194.453125 L 83.734375 185.707031 C 75.015625 176.988281 74.992188 162.84375 83.691406 154.148438 L 92.660156 145.179688 L 101.402344 153.921875 C 110.121094 162.644531 110.144531 176.785156 101.445312 185.484375 Z M 101.445312 185.484375 " fill-opacity="1" fill-rule="nonzero"/></g></g></g><g clip-path="url(#id11)"><g clip-path="url(#id12)"><path fill="url(#id13)" d="M 14.578125 91.996094 L 14.578125 247.996094 L 170.578125 247.996094 L 170.578125 91.996094 Z M 14.578125 91.996094 " fill-rule="nonzero"/></g></g><g clip-path="url(#id14)"><path fill="rgb(23.529053%, 70.979309%, 79.60968%)" d="M 339.289062 185.269531 L 338.1875 185.269531 C 337.703125 185.269531 337.503906 184.90625 337.503906 184.554688 C 337.503906 184.195312 337.753906 183.84375 338.1875 183.84375 L 341.898438 183.84375 C 342.332031 183.84375 342.585938 184.195312 342.585938 184.554688 C 342.585938 184.90625 342.382812 185.269531 341.898438 185.269531 L 340.800781 185.269531 L 340.800781 190.460938 C 340.800781 190.976562 340.476562 191.265625 340.042969 191.265625 C 339.609375 191.265625 339.289062 190.976562 339.289062 190.460938 Z M 343.65625 184.574219 C 343.714844 184.203125 344.109375 183.78125 344.644531 183.78125 C 345.148438 183.78125 345.539062 184.152344 345.652344 184.523438 L 346.839844 188.617188 L 346.863281 188.617188 L 348.050781 184.523438 C 348.164062 184.152344 348.558594 183.78125 349.0625 183.78125 C 349.597656 183.78125 349.988281 184.203125 350.050781 184.574219 L 350.988281 190.34375 C 350.996094 190.40625 350.996094 190.46875 350.996094 190.519531 C 350.996094 190.976562 350.675781 191.265625 350.273438 191.265625 C 349.757812 191.265625 349.554688 191.027344 349.484375 190.539062 L 348.890625 186.332031 L 348.871094 186.332031 L 347.660156 190.664062 C 347.589844 190.914062 347.398438 191.265625 346.851562 191.265625 C 346.308594 191.265625 346.117188 190.914062 346.046875 190.664062 L 344.835938 186.332031 L 344.816406 186.332031 L 344.21875 190.539062 C 344.148438 191.027344 343.949219 191.265625 343.433594 191.265625 C 343.03125 191.265625 342.707031 190.976562 342.707031 190.519531 C 342.707031 190.46875 342.707031 190.40625 342.71875 190.34375 Z M 343.65625 184.574219 " fill-opacity="1" fill-rule="nonzero"/></g><g fill="rgb(32.159424%, 44.309998%, 100%)" fill-opacity="1"><g transform="translate(174.457054, 160.164846)"><g><path d="M 23.0625 0 L 23.296875 -9.671875 L 22.25 -9.671875 L 21.34375 -6.234375 C 20.613281 -3.441406 19.375 -1.820312 17.625 -1.375 C 17.207031 -1.28125 16.78125 -1.234375 16.34375 -1.234375 L 10.09375 -1.234375 L 10.09375 -27.34375 L 14.15625 -27.34375 L 14.15625 -28.578125 L 1.71875 -28.578125 L 1.71875 -27.34375 L 5.53125 -27.34375 L 5.53125 -1.234375 L 1.71875 -1.234375 L 1.71875 0 Z M 23.0625 0 "/></g></g></g><g fill="rgb(32.159424%, 44.309998%, 100%)" fill-opacity="1"><g transform="translate(197.153404, 160.164846)"><g><path d="M 11.296875 -1.1875 L 9.046875 -1.1875 L 9.046875 -20.296875 L 1.375 -20.296875 L 1.375 -19.109375 L 5 -19.109375 L 5 -4 C 5 -2.539062 4.507812 -1.664062 3.53125 -1.375 C 3.050781 -1.25 2.332031 -1.1875 1.375 -1.1875 L 1.375 0 L 12.484375 0 C 12.484375 -0.695312 12.242188 -1.078125 11.765625 -1.140625 C 11.640625 -1.171875 11.484375 -1.1875 11.296875 -1.1875 Z M 9.578125 -27.109375 C 9.578125 -28.253906 9.066406 -29.09375 8.046875 -29.625 C 7.640625 -29.820312 7.226562 -29.921875 6.8125 -29.921875 C 5.632812 -29.921875 4.789062 -29.394531 4.28125 -28.34375 C 4.09375 -27.925781 4 -27.515625 4 -27.109375 C 4 -25.898438 4.539062 -25.039062 5.625 -24.53125 C 6 -24.375 6.394531 -24.296875 6.8125 -24.296875 C 7.957031 -24.296875 8.785156 -24.820312 9.296875 -25.875 C 9.484375 -26.28125 9.578125 -26.691406 9.578125 -27.109375 Z M 9.578125 -27.109375 "/></g></g></g><g fill="rgb(32.159424%, 44.309998%, 100%)" fill-opacity="1"><g transform="translate(209.990374, 160.164846)"><g><path d="M 0.90625 -19.0625 L 4.234375 -19.0625 L 4.234375 -5.90625 C 4.460938 -1.75 6.382812 0.394531 10 0.53125 C 12.988281 0.53125 14.847656 -1.265625 15.578125 -4.859375 C 15.578125 -4.890625 15.578125 -4.921875 15.578125 -4.953125 L 14.296875 -5.1875 C 13.628906 -2.363281 12.484375 -0.9375 10.859375 -0.90625 C 9.179688 -0.96875 8.320312 -2.191406 8.28125 -4.578125 L 8.28125 -19.0625 L 15.484375 -19.0625 L 15.484375 -20.25 L 8.28125 -20.25 L 8.28125 -25.765625 L 4.234375 -24.765625 L 4.234375 -20.25 L 0.90625 -20.25 Z M 0.90625 -19.0625 "/></g></g></g><g fill="rgb(32.159424%, 44.309998%, 100%)" fill-opacity="1"><g transform="translate(224.827796, 160.164846)"><g><path d="M 10.71875 -1.1875 L 8.8125 -1.1875 L 8.8125 -11.671875 C 8.875 -14.429688 9.78125 -16.460938 11.53125 -17.765625 C 12.320312 -18.367188 13.128906 -18.671875 13.953125 -18.671875 C 15.484375 -18.671875 16.535156 -17.796875 17.109375 -16.046875 C 17.328125 -15.316406 17.4375 -14.507812 17.4375 -13.625 L 17.4375 -4 C 17.4375 -2.570312 17.117188 -1.710938 16.484375 -1.421875 C 16.035156 -1.265625 15.335938 -1.1875 14.390625 -1.1875 L 14.390625 0 L 24.578125 0 C 24.578125 -0.695312 24.335938 -1.078125 23.859375 -1.140625 C 23.734375 -1.171875 23.578125 -1.1875 23.390625 -1.1875 L 21.53125 -1.1875 L 21.53125 -13.625 C 22.039062 -15.945312 23.117188 -17.519531 24.765625 -18.34375 C 25.335938 -18.625 25.894531 -18.765625 26.4375 -18.765625 C 28.03125 -18.765625 29.144531 -17.925781 29.78125 -16.25 C 30.0625 -15.476562 30.203125 -14.601562 30.203125 -13.625 L 30.203125 -4 C 30.203125 -2.570312 29.867188 -1.710938 29.203125 -1.421875 C 28.753906 -1.265625 28.054688 -1.1875 27.109375 -1.1875 L 27.109375 0 L 37.6875 0 C 37.6875 -0.695312 37.445312 -1.078125 36.96875 -1.140625 C 36.84375 -1.171875 36.679688 -1.1875 36.484375 -1.1875 L 34.25 -1.1875 L 34.25 -13.140625 C 34.25 -16.347656 33.1875 -18.617188 31.0625 -19.953125 C 30.101562 -20.523438 29.070312 -20.8125 27.96875 -20.8125 C 25.300781 -20.8125 23.21875 -19.507812 21.71875 -16.90625 C 21.53125 -16.5625 21.359375 -16.195312 21.203125 -15.8125 C 20.597656 -18.195312 19.34375 -19.753906 17.4375 -20.484375 C 16.863281 -20.703125 16.273438 -20.8125 15.671875 -20.8125 C 13.253906 -20.8125 11.285156 -19.765625 9.765625 -17.671875 C 9.378906 -17.097656 9.046875 -16.492188 8.765625 -15.859375 L 8.578125 -20.296875 L 1.328125 -20.296875 L 1.328125 -19.109375 L 4.765625 -19.109375 L 4.765625 -4 C 4.765625 -2.539062 4.320312 -1.664062 3.4375 -1.375 C 2.957031 -1.25 2.253906 -1.1875 1.328125 -1.1875 L 1.328125 0 L 11.859375 0 C 11.859375 -0.695312 11.632812 -1.078125 11.1875 -1.140625 C 11.03125 -1.171875 10.875 -1.1875 10.71875 -1.1875 Z M 10.71875 -1.1875 "/></g></g></g><g fill="rgb(32.159424%, 44.309998%, 100%)" fill-opacity="1"><g transform="translate(262.622812, 160.164846)"><g><path d="M 18.578125 0.46875 C 20.867188 0.46875 22.234375 -0.671875 22.671875 -2.953125 C 22.734375 -3.429688 22.78125 -3.941406 22.8125 -4.484375 L 21.578125 -4.53125 C 21.359375 -2.238281 20.753906 -1.078125 19.765625 -1.046875 C 18.972656 -1.109375 18.5625 -1.921875 18.53125 -3.484375 L 18.53125 -13.53125 C 18.46875 -18.351562 15.847656 -20.78125 10.671875 -20.8125 C 6.984375 -20.8125 4.535156 -19.972656 3.328125 -18.296875 C 2.953125 -17.753906 2.765625 -17.210938 2.765625 -16.671875 C 2.765625 -15.660156 3.238281 -15.039062 4.1875 -14.8125 C 4.414062 -14.78125 4.625 -14.765625 4.8125 -14.765625 C 5.664062 -14.765625 6.285156 -15.273438 6.671875 -16.296875 C 7.117188 -17.535156 7.390625 -18.234375 7.484375 -18.390625 C 8.085938 -19.210938 8.988281 -19.625 10.1875 -19.625 C 13.019531 -19.5625 14.453125 -17.910156 14.484375 -14.671875 L 14.484375 -11.671875 C 6.578125 -11.640625 2.289062 -9.8125 1.625 -6.1875 C 1.5625 -5.84375 1.53125 -5.460938 1.53125 -5.046875 C 1.53125 -2.535156 2.625 -0.851562 4.8125 0 C 5.632812 0.3125 6.523438 0.46875 7.484375 0.46875 C 9.796875 0.46875 11.71875 -0.320312 13.25 -1.90625 C 13.8125 -2.507812 14.238281 -3.160156 14.53125 -3.859375 C 14.945312 -1.003906 16.296875 0.4375 18.578125 0.46875 Z M 9.234375 -1.484375 C 7.234375 -1.484375 6.09375 -2.59375 5.8125 -4.8125 C 5.78125 -5.125 5.765625 -5.457031 5.765625 -5.8125 C 5.765625 -7.9375 6.941406 -9.285156 9.296875 -9.859375 C 10.523438 -10.148438 12.253906 -10.3125 14.484375 -10.34375 L 14.484375 -6.390625 C 13.941406 -4.191406 12.796875 -2.679688 11.046875 -1.859375 C 10.410156 -1.609375 9.804688 -1.484375 9.234375 -1.484375 Z M 9.234375 -1.484375 "/></g></g></g><g fill="rgb(32.159424%, 44.309998%, 100%)" fill-opacity="1"><g transform="translate(284.699972, 160.164846)"><g><path d="M 9.09375 -0.8125 C 11.289062 -0.8125 12.722656 -1.492188 13.390625 -2.859375 C 13.609375 -3.304688 13.71875 -3.765625 13.71875 -4.234375 C 13.71875 -5.628906 12.734375 -6.820312 10.765625 -7.8125 C 10.347656 -8.03125 9.664062 -8.347656 8.71875 -8.765625 C 6.175781 -9.847656 4.476562 -10.863281 3.625 -11.8125 C 2.726562 -12.832031 2.28125 -14.023438 2.28125 -15.390625 C 2.28125 -17.640625 3.519531 -19.242188 6 -20.203125 C 7.175781 -20.609375 8.445312 -20.8125 9.8125 -20.8125 C 11.96875 -20.8125 13.796875 -20.367188 15.296875 -19.484375 C 15.296875 -20.398438 15.515625 -20.925781 15.953125 -21.0625 C 16.117188 -21.09375 16.328125 -21.109375 16.578125 -21.109375 L 16.578125 -15.15625 L 15.296875 -15.15625 C 15.234375 -18.070312 13.613281 -19.546875 10.4375 -19.578125 C 8.144531 -19.578125 6.710938 -18.878906 6.140625 -17.484375 C 6.015625 -17.097656 5.953125 -16.71875 5.953125 -16.34375 C 5.953125 -14.976562 6.921875 -13.816406 8.859375 -12.859375 C 9.304688 -12.640625 9.988281 -12.335938 10.90625 -11.953125 C 13.476562 -10.910156 15.191406 -9.925781 16.046875 -9 C 16.972656 -7.957031 17.4375 -6.71875 17.4375 -5.28125 C 17.4375 -2.644531 16.054688 -0.898438 13.296875 -0.046875 C 12.210938 0.296875 11.035156 0.46875 9.765625 0.46875 C 7.378906 0.4375 5.316406 -0.113281 3.578125 -1.1875 C 3.578125 -0.363281 3.367188 0.109375 2.953125 0.234375 C 2.765625 0.265625 2.539062 0.28125 2.28125 0.28125 L 2.28125 -6.953125 L 3.671875 -6.953125 C 3.734375 -2.890625 5.539062 -0.84375 9.09375 -0.8125 Z M 9.09375 -0.8125 "/></g></g></g><g fill="rgb(32.159424%, 44.309998%, 100%)" fill-opacity="1"><g transform="translate(174.457054, 203.872712)"><g><path d="M 23.4375 -7.578125 C 23.4375 -10.367188 21.910156 -12.640625 18.859375 -14.390625 C 18.359375 -14.703125 16.550781 -15.554688 13.4375 -16.953125 C 10.632812 -18.191406 8.867188 -19.460938 8.140625 -20.765625 C 7.796875 -21.460938 7.625 -22.195312 7.625 -22.96875 C 7.625 -25 8.609375 -26.410156 10.578125 -27.203125 C 11.429688 -27.546875 12.367188 -27.71875 13.390625 -27.71875 C 16.023438 -27.71875 18.023438 -26.816406 19.390625 -25.015625 C 20.335938 -23.773438 20.796875 -22.25 20.765625 -20.4375 L 22.296875 -20.4375 L 22.296875 -28.828125 C 21.472656 -28.828125 21.007812 -28.554688 20.90625 -28.015625 C 20.84375 -27.785156 20.8125 -27.515625 20.8125 -27.203125 C 18.46875 -28.441406 15.878906 -29.0625 13.046875 -29.0625 C 9.585938 -29.0625 6.890625 -28.109375 4.953125 -26.203125 C 3.648438 -24.898438 3 -23.34375 3 -21.53125 C 3 -18.863281 4.476562 -16.6875 7.4375 -15 C 7.96875 -14.6875 9.773438 -13.832031 12.859375 -12.4375 C 15.691406 -11.164062 17.488281 -9.863281 18.25 -8.53125 C 18.625 -7.832031 18.8125 -7.066406 18.8125 -6.234375 C 18.8125 -4.015625 17.765625 -2.429688 15.671875 -1.484375 C 14.691406 -1.066406 13.613281 -0.859375 12.4375 -0.859375 C 7.832031 -0.859375 5.164062 -3.507812 4.4375 -8.8125 C 4.394531 -9.164062 4.359375 -9.5 4.328125 -9.8125 L 2.8125 -9.8125 L 2.8125 0.09375 C 3.570312 0.09375 4.03125 -0.128906 4.1875 -0.578125 C 4.25 -0.859375 4.28125 -1.316406 4.28125 -1.953125 C 6.726562 -0.335938 9.539062 0.46875 12.71875 0.46875 C 16.40625 0.46875 19.265625 -0.515625 21.296875 -2.484375 C 22.722656 -3.910156 23.4375 -5.609375 23.4375 -7.578125 Z M 23.4375 -7.578125 "/></g></g></g><g fill="rgb(32.159424%, 44.309998%, 100%)" fill-opacity="1"><g transform="translate(199.201487, 203.872712)"><g><path d="M 5.140625 7.578125 C 4.628906 7.578125 4.234375 7.179688 3.953125 6.390625 C 3.566406 5.398438 3.203125 4.796875 2.859375 4.578125 C 2.566406 4.378906 2.234375 4.28125 1.859375 4.28125 C 0.804688 4.28125 0.1875 4.726562 0 5.625 C -0.03125 5.78125 -0.046875 5.921875 -0.046875 6.046875 C -0.046875 7.222656 0.648438 8.097656 2.046875 8.671875 C 2.742188 8.953125 3.472656 9.09375 4.234375 9.09375 C 6.742188 9.09375 8.921875 7.570312 10.765625 4.53125 C 11.492188 3.320312 12.207031 1.859375 12.90625 0.140625 L 19.953125 -17.484375 C 20.273438 -18.367188 20.644531 -18.875 21.0625 -19 C 21.25 -19.039062 21.46875 -19.0625 21.71875 -19.0625 C 22.382812 -19.0625 22.765625 -19.234375 22.859375 -19.578125 C 22.890625 -19.765625 22.90625 -20.003906 22.90625 -20.296875 L 15.671875 -20.296875 L 15.671875 -19.0625 L 19.15625 -19.0625 L 13.203125 -4.234375 L 6.859375 -19.0625 L 10 -19.0625 L 10 -20.296875 L 0.328125 -20.296875 L 0.328125 -19.0625 L 2.578125 -19.0625 L 11.296875 0.1875 C 9.578125 4.28125 7.957031 6.664062 6.4375 7.34375 C 5.988281 7.5 5.554688 7.578125 5.140625 7.578125 Z M 5.140625 7.578125 "/></g></g></g><g fill="rgb(32.159424%, 44.309998%, 100%)" fill-opacity="1"><g transform="translate(221.326279, 203.872712)"><g><path d="M 9.09375 -0.8125 C 11.289062 -0.8125 12.722656 -1.492188 13.390625 -2.859375 C 13.609375 -3.304688 13.71875 -3.765625 13.71875 -4.234375 C 13.71875 -5.628906 12.734375 -6.820312 10.765625 -7.8125 C 10.347656 -8.03125 9.664062 -8.347656 8.71875 -8.765625 C 6.175781 -9.847656 4.476562 -10.863281 3.625 -11.8125 C 2.726562 -12.832031 2.28125 -14.023438 2.28125 -15.390625 C 2.28125 -17.640625 3.519531 -19.242188 6 -20.203125 C 7.175781 -20.609375 8.445312 -20.8125 9.8125 -20.8125 C 11.96875 -20.8125 13.796875 -20.367188 15.296875 -19.484375 C 15.296875 -20.398438 15.515625 -20.925781 15.953125 -21.0625 C 16.117188 -21.09375 16.328125 -21.109375 16.578125 -21.109375 L 16.578125 -15.15625 L 15.296875 -15.15625 C 15.234375 -18.070312 13.613281 -19.546875 10.4375 -19.578125 C 8.144531 -19.578125 6.710938 -18.878906 6.140625 -17.484375 C 6.015625 -17.097656 5.953125 -16.71875 5.953125 -16.34375 C 5.953125 -14.976562 6.921875 -13.816406 8.859375 -12.859375 C 9.304688 -12.640625 9.988281 -12.335938 10.90625 -11.953125 C 13.476562 -10.910156 15.191406 -9.925781 16.046875 -9 C 16.972656 -7.957031 17.4375 -6.71875 17.4375 -5.28125 C 17.4375 -2.644531 16.054688 -0.898438 13.296875 -0.046875 C 12.210938 0.296875 11.035156 0.46875 9.765625 0.46875 C 7.378906 0.4375 5.316406 -0.113281 3.578125 -1.1875 C 3.578125 -0.363281 3.367188 0.109375 2.953125 0.234375 C 2.765625 0.265625 2.539062 0.28125 2.28125 0.28125 L 2.28125 -6.953125 L 3.671875 -6.953125 C 3.734375 -2.890625 5.539062 -0.84375 9.09375 -0.8125 Z M 9.09375 -0.8125 "/></g></g></g><g fill="rgb(32.159424%, 44.309998%, 100%)" fill-opacity="1"><g transform="translate(239.593051, 203.872712)"><g><path d="M 0.90625 -19.0625 L 4.234375 -19.0625 L 4.234375 -5.90625 C 4.460938 -1.75 6.382812 0.394531 10 0.53125 C 12.988281 0.53125 14.847656 -1.265625 15.578125 -4.859375 C 15.578125 -4.890625 15.578125 -4.921875 15.578125 -4.953125 L 14.296875 -5.1875 C 13.628906 -2.363281 12.484375 -0.9375 10.859375 -0.90625 C 9.179688 -0.96875 8.320312 -2.191406 8.28125 -4.578125 L 8.28125 -19.0625 L 15.484375 -19.0625 L 15.484375 -20.25 L 8.28125 -20.25 L 8.28125 -25.765625 L 4.234375 -24.765625 L 4.234375 -20.25 L 0.90625 -20.25 Z M 0.90625 -19.0625 "/></g></g></g><g fill="rgb(32.159424%, 44.309998%, 100%)" fill-opacity="1"><g transform="translate(254.430477, 203.872712)"><g><path d="M 11.90625 -19.625 C 14.070312 -19.625 15.472656 -18.640625 16.109375 -16.671875 C 16.296875 -16.066406 16.390625 -15.429688 16.390625 -14.765625 C 16.390625 -13.210938 15.691406 -12.257812 14.296875 -11.90625 C 13.492188 -11.71875 12.394531 -11.640625 11 -11.671875 L 6.328125 -11.8125 C 6.460938 -15.5625 7.609375 -17.992188 9.765625 -19.109375 C 10.429688 -19.453125 11.144531 -19.625 11.90625 -19.625 Z M 20.34375 -4.625 L 19.15625 -5.046875 C 18.132812 -2.828125 16.515625 -1.476562 14.296875 -1 C 13.785156 -0.90625 13.289062 -0.859375 12.8125 -0.859375 C 9.445312 -0.859375 7.382812 -2.984375 6.625 -7.234375 C 6.46875 -8.222656 6.367188 -9.304688 6.328125 -10.484375 L 11.8125 -10.390625 C 15.875 -10.328125 18.460938 -10.738281 19.578125 -11.625 C 20.304688 -12.257812 20.671875 -13.117188 20.671875 -14.203125 C 20.671875 -16.453125 19.53125 -18.226562 17.25 -19.53125 C 15.65625 -20.382812 13.84375 -20.8125 11.8125 -20.8125 C 7.96875 -20.8125 5.140625 -19.273438 3.328125 -16.203125 C 2.316406 -14.421875 1.8125 -12.367188 1.8125 -10.046875 C 1.8125 -5.984375 3.285156 -3 6.234375 -1.09375 C 7.921875 -0.0507812 9.828125 0.46875 11.953125 0.46875 C 15.515625 0.46875 18.101562 -0.8125 19.71875 -3.375 C 19.945312 -3.789062 20.15625 -4.207031 20.34375 -4.625 Z M 20.34375 -4.625 "/></g></g></g><g fill="rgb(32.159424%, 44.309998%, 100%)" fill-opacity="1"><g transform="translate(275.6503, 203.872712)"><g><path d="M 10.71875 -1.1875 L 8.8125 -1.1875 L 8.8125 -11.671875 C 8.875 -14.429688 9.78125 -16.460938 11.53125 -17.765625 C 12.320312 -18.367188 13.128906 -18.671875 13.953125 -18.671875 C 15.484375 -18.671875 16.535156 -17.796875 17.109375 -16.046875 C 17.328125 -15.316406 17.4375 -14.507812 17.4375 -13.625 L 17.4375 -4 C 17.4375 -2.570312 17.117188 -1.710938 16.484375 -1.421875 C 16.035156 -1.265625 15.335938 -1.1875 14.390625 -1.1875 L 14.390625 0 L 24.578125 0 C 24.578125 -0.695312 24.335938 -1.078125 23.859375 -1.140625 C 23.734375 -1.171875 23.578125 -1.1875 23.390625 -1.1875 L 21.53125 -1.1875 L 21.53125 -13.625 C 22.039062 -15.945312 23.117188 -17.519531 24.765625 -18.34375 C 25.335938 -18.625 25.894531 -18.765625 26.4375 -18.765625 C 28.03125 -18.765625 29.144531 -17.925781 29.78125 -16.25 C 30.0625 -15.476562 30.203125 -14.601562 30.203125 -13.625 L 30.203125 -4 C 30.203125 -2.570312 29.867188 -1.710938 29.203125 -1.421875 C 28.753906 -1.265625 28.054688 -1.1875 27.109375 -1.1875 L 27.109375 0 L 37.6875 0 C 37.6875 -0.695312 37.445312 -1.078125 36.96875 -1.140625 C 36.84375 -1.171875 36.679688 -1.1875 36.484375 -1.1875 L 34.25 -1.1875 L 34.25 -13.140625 C 34.25 -16.347656 33.1875 -18.617188 31.0625 -19.953125 C 30.101562 -20.523438 29.070312 -20.8125 27.96875 -20.8125 C 25.300781 -20.8125 23.21875 -19.507812 21.71875 -16.90625 C 21.53125 -16.5625 21.359375 -16.195312 21.203125 -15.8125 C 20.597656 -18.195312 19.34375 -19.753906 17.4375 -20.484375 C 16.863281 -20.703125 16.273438 -20.8125 15.671875 -20.8125 C 13.253906 -20.8125 11.285156 -19.765625 9.765625 -17.671875 C 9.378906 -17.097656 9.046875 -16.492188 8.765625 -15.859375 L 8.578125 -20.296875 L 1.328125 -20.296875 L 1.328125 -19.109375 L 4.765625 -19.109375 L 4.765625 -4 C 4.765625 -2.539062 4.320312 -1.664062 3.4375 -1.375 C 2.957031 -1.25 2.253906 -1.1875 1.328125 -1.1875 L 1.328125 0 L 11.859375 0 C 11.859375 -0.695312 11.632812 -1.078125 11.1875 -1.140625 C 11.03125 -1.171875 10.875 -1.1875 10.71875 -1.1875 Z M 10.71875 -1.1875 "/></g></g></g><g fill="rgb(32.159424%, 44.309998%, 100%)" fill-opacity="1"><g transform="translate(313.445311, 203.872712)"><g><path d="M 9.09375 -0.8125 C 11.289062 -0.8125 12.722656 -1.492188 13.390625 -2.859375 C 13.609375 -3.304688 13.71875 -3.765625 13.71875 -4.234375 C 13.71875 -5.628906 12.734375 -6.820312 10.765625 -7.8125 C 10.347656 -8.03125 9.664062 -8.347656 8.71875 -8.765625 C 6.175781 -9.847656 4.476562 -10.863281 3.625 -11.8125 C 2.726562 -12.832031 2.28125 -14.023438 2.28125 -15.390625 C 2.28125 -17.640625 3.519531 -19.242188 6 -20.203125 C 7.175781 -20.609375 8.445312 -20.8125 9.8125 -20.8125 C 11.96875 -20.8125 13.796875 -20.367188 15.296875 -19.484375 C 15.296875 -20.398438 15.515625 -20.925781 15.953125 -21.0625 C 16.117188 -21.09375 16.328125 -21.109375 16.578125 -21.109375 L 16.578125 -15.15625 L 15.296875 -15.15625 C 15.234375 -18.070312 13.613281 -19.546875 10.4375 -19.578125 C 8.144531 -19.578125 6.710938 -18.878906 6.140625 -17.484375 C 6.015625 -17.097656 5.953125 -16.71875 5.953125 -16.34375 C 5.953125 -14.976562 6.921875 -13.816406 8.859375 -12.859375 C 9.304688 -12.640625 9.988281 -12.335938 10.90625 -11.953125 C 13.476562 -10.910156 15.191406 -9.925781 16.046875 -9 C 16.972656 -7.957031 17.4375 -6.71875 17.4375 -5.28125 C 17.4375 -2.644531 16.054688 -0.898438 13.296875 -0.046875 C 12.210938 0.296875 11.035156 0.46875 9.765625 0.46875 C 7.378906 0.4375 5.316406 -0.113281 3.578125 -1.1875 C 3.578125 -0.363281 3.367188 0.109375 2.953125 0.234375 C 2.765625 0.265625 2.539062 0.28125 2.28125 0.28125 L 2.28125 -6.953125 L 3.671875 -6.953125 C 3.734375 -2.890625 5.539062 -0.84375 9.09375 -0.8125 Z M 9.09375 -0.8125 "/></g></g></g></svg>