<svg xmlns="http://www.w3.org/2000/svg" xmlns:xlink="http://www.w3.org/1999/xlink" width="500" zoomAndPan="magnify" viewBox="0 0 375 374.999991" height="500" preserveAspectRatio="xMidYMid meet" version="1.0"><defs><g><g id="id1"/></g><clipPath id="id2"><path d="M 135 159 L 164 159 L 164 203 L 135 203 Z M 135 159 " clip-rule="nonzero"/></clipPath><clipPath id="id3"><path d="M 142.21875 143.234375 L 180.402344 181.417969 L 142.21875 219.601562 L 104.035156 181.417969 Z M 142.21875 143.234375 " clip-rule="nonzero"/></clipPath><clipPath id="id4"><path d="M 142.21875 143.234375 L 180.402344 181.417969 L 142.21875 219.601562 L 104.035156 181.417969 Z M 142.21875 143.234375 " clip-rule="nonzero"/></clipPath><clipPath id="id5"><path d="M 120 159 L 150 159 L 150 203 L 120 203 Z M 120 159 " clip-rule="nonzero"/></clipPath><clipPath id="id6"><path d="M 142.21875 143.234375 L 180.402344 181.417969 L 142.21875 219.601562 L 104.035156 181.417969 Z M 142.21875 143.234375 " clip-rule="nonzero"/></clipPath><clipPath id="id7"><path d="M 142.21875 143.234375 L 180.402344 181.417969 L 142.21875 219.601562 L 104.035156 181.417969 Z M 142.21875 143.234375 " clip-rule="nonzero"/></clipPath><clipPath id="id8"><path d="M 135 169 L 150 169 L 150 193 L 135 193 Z M 135 169 " clip-rule="nonzero"/></clipPath><clipPath id="id9"><path d="M 142.21875 143.234375 L 180.402344 181.417969 L 142.21875 219.601562 L 104.035156 181.417969 Z M 142.21875 143.234375 " clip-rule="nonzero"/></clipPath><clipPath id="id10"><path d="M 142.21875 143.234375 L 180.402344 181.417969 L 142.21875 219.601562 L 104.035156 181.417969 Z M 142.21875 143.234375 " clip-rule="nonzero"/></clipPath><clipPath id="id11"><path d="M 104.226562 143.230469 L 180.726562 143.230469 L 180.726562 219.730469 L 104.226562 219.730469 Z M 104.226562 143.230469 " clip-rule="nonzero"/></clipPath><clipPath id="id12"><path d="M 142.476562 219.730469 C 121.402344 219.730469 104.226562 202.554688 104.226562 181.480469 C 104.226562 160.40625 121.402344 143.230469 142.476562 143.230469 C 163.550781 143.230469 180.726562 160.40625 180.726562 181.480469 C 180.726562 202.554688 163.550781 219.730469 142.476562 219.730469 Z M 142.476562 150.449219 C 125.375 150.449219 111.445312 164.375 111.445312 181.480469 C 111.445312 198.585938 125.375 212.511719 142.476562 212.511719 C 159.582031 212.511719 173.511719 198.585938 173.511719 181.480469 C 173.511719 164.375 159.582031 150.449219 142.476562 150.449219 Z M 142.476562 150.449219 " clip-rule="nonzero"/></clipPath><linearGradient x1="-0.00000130637" gradientTransform="matrix(0.721698, 0, 0, 0.721698, 104.227381, 143.230577)" y1="53.005001" x2="105.999998" gradientUnits="userSpaceOnUse" y2="53.005001" xlink:type="simple" xlink:actuate="onLoad" id="id13" xlink:show="other"><stop stop-opacity="1" stop-color="rgb(23.498535%, 70.999146%, 79.598999%)" offset="0"/><stop stop-opacity="1" stop-color="rgb(23.716736%, 71.06781%, 79.440308%)" offset="0.00390625"/><stop stop-opacity="1" stop-color="rgb(23.934937%, 71.138%, 79.283142%)" offset="0.0078125"/><stop stop-opacity="1" stop-color="rgb(24.153137%, 71.206665%, 79.124451%)" offset="0.0117188"/><stop stop-opacity="1" stop-color="rgb(24.371338%, 71.276855%, 78.967285%)" offset="0.015625"/><stop stop-opacity="1" stop-color="rgb(24.589539%, 71.34552%, 78.81012%)" offset="0.0195312"/><stop stop-opacity="1" stop-color="rgb(24.807739%, 71.41571%, 78.652954%)" offset="0.0234375"/><stop stop-opacity="1" stop-color="rgb(25.02594%, 71.484375%, 78.494263%)" offset="0.0273438"/><stop stop-opacity="1" stop-color="rgb(25.244141%, 71.554565%, 78.337097%)" offset="0.03125"/><stop stop-opacity="1" stop-color="rgb(25.462341%, 71.62323%, 78.178406%)" offset="0.0351562"/><stop stop-opacity="1" stop-color="rgb(25.680542%, 71.69342%, 78.02124%)" offset="0.0390625"/><stop stop-opacity="1" stop-color="rgb(25.898743%, 71.762085%, 77.862549%)" offset="0.0429688"/><stop stop-opacity="1" stop-color="rgb(26.116943%, 71.832275%, 77.705383%)" offset="0.046875"/><stop stop-opacity="1" stop-color="rgb(26.335144%, 71.90094%, 77.546692%)" offset="0.0507813"/><stop stop-opacity="1" stop-color="rgb(26.553345%, 71.97113%, 77.389526%)" offset="0.0546875"/><stop stop-opacity="1" stop-color="rgb(26.771545%, 72.039795%, 77.230835%)" offset="0.0585938"/><stop stop-opacity="1" stop-color="rgb(26.989746%, 72.109985%, 77.073669%)" offset="0.0625"/><stop stop-opacity="1" stop-color="rgb(27.207947%, 72.17865%, 76.916504%)" offset="0.0664062"/><stop stop-opacity="1" stop-color="rgb(27.426147%, 72.24884%, 76.759338%)" offset="0.0703125"/><stop stop-opacity="1" stop-color="rgb(27.644348%, 72.317505%, 76.600647%)" offset="0.0742188"/><stop stop-opacity="1" stop-color="rgb(27.862549%, 72.387695%, 76.443481%)" offset="0.078125"/><stop stop-opacity="1" stop-color="rgb(28.08075%, 72.45636%, 76.28479%)" offset="0.0820312"/><stop stop-opacity="1" stop-color="rgb(28.29895%, 72.52655%, 76.127625%)" offset="0.0859375"/><stop stop-opacity="1" stop-color="rgb(28.517151%, 72.595215%, 75.968933%)" offset="0.0898438"/><stop stop-opacity="1" stop-color="rgb(28.735352%, 72.665405%, 75.811768%)" offset="0.09375"/><stop stop-opacity="1" stop-color="rgb(28.953552%, 72.73407%, 75.653076%)" offset="0.0976562"/><stop stop-opacity="1" stop-color="rgb(29.171753%, 72.80426%, 75.495911%)" offset="0.101562"/><stop stop-opacity="1" stop-color="rgb(29.389954%, 72.872925%, 75.337219%)" offset="0.105469"/><stop stop-opacity="1" stop-color="rgb(29.608154%, 72.943115%, 75.180054%)" offset="0.109375"/><stop stop-opacity="1" stop-color="rgb(29.826355%, 73.01178%, 75.021362%)" offset="0.113281"/><stop stop-opacity="1" stop-color="rgb(30.044556%, 73.08197%, 74.864197%)" offset="0.117188"/><stop stop-opacity="1" stop-color="rgb(30.262756%, 73.150635%, 74.707031%)" offset="0.121094"/><stop stop-opacity="1" stop-color="rgb(30.480957%, 73.220825%, 74.549866%)" offset="0.125"/><stop stop-opacity="1" stop-color="rgb(30.699158%, 73.28949%, 74.391174%)" offset="0.128906"/><stop stop-opacity="1" stop-color="rgb(30.917358%, 73.35968%, 74.234009%)" offset="0.132812"/><stop stop-opacity="1" stop-color="rgb(31.135559%, 73.428345%, 74.075317%)" offset="0.136719"/><stop stop-opacity="1" stop-color="rgb(31.35376%, 73.498535%, 73.918152%)" offset="0.140625"/><stop stop-opacity="1" stop-color="rgb(31.57196%, 73.5672%, 73.75946%)" offset="0.144531"/><stop stop-opacity="1" stop-color="rgb(31.790161%, 73.63739%, 73.602295%)" offset="0.148438"/><stop stop-opacity="1" stop-color="rgb(32.008362%, 73.706055%, 73.443604%)" offset="0.152344"/><stop stop-opacity="1" stop-color="rgb(32.226562%, 73.776245%, 73.286438%)" offset="0.15625"/><stop stop-opacity="1" stop-color="rgb(32.444763%, 73.84491%, 73.127747%)" offset="0.160156"/><stop stop-opacity="1" stop-color="rgb(32.662964%, 73.9151%, 72.970581%)" offset="0.164062"/><stop stop-opacity="1" stop-color="rgb(32.881165%, 73.983765%, 72.81189%)" offset="0.167969"/><stop stop-opacity="1" stop-color="rgb(33.099365%, 74.053955%, 72.654724%)" offset="0.171875"/><stop stop-opacity="1" stop-color="rgb(33.317566%, 74.12262%, 72.497559%)" offset="0.175781"/><stop stop-opacity="1" stop-color="rgb(33.535767%, 74.19281%, 72.340393%)" offset="0.179688"/><stop stop-opacity="1" stop-color="rgb(33.753967%, 74.261475%, 72.181702%)" offset="0.183594"/><stop stop-opacity="1" stop-color="rgb(33.972168%, 74.331665%, 72.024536%)" offset="0.1875"/><stop stop-opacity="1" stop-color="rgb(34.190369%, 74.40033%, 71.865845%)" offset="0.191406"/><stop stop-opacity="1" stop-color="rgb(34.408569%, 74.47052%, 71.708679%)" offset="0.195313"/><stop stop-opacity="1" stop-color="rgb(34.62677%, 74.539185%, 71.549988%)" offset="0.199219"/><stop stop-opacity="1" stop-color="rgb(34.844971%, 74.609375%, 71.392822%)" offset="0.203125"/><stop stop-opacity="1" stop-color="rgb(35.063171%, 74.67804%, 71.234131%)" offset="0.207031"/><stop stop-opacity="1" stop-color="rgb(35.281372%, 74.74823%, 71.076965%)" offset="0.210938"/><stop stop-opacity="1" stop-color="rgb(35.499573%, 74.816895%, 70.918274%)" offset="0.214844"/><stop stop-opacity="1" stop-color="rgb(35.717773%, 74.887085%, 70.761108%)" offset="0.21875"/><stop stop-opacity="1" stop-color="rgb(35.935974%, 74.95575%, 70.603943%)" offset="0.222656"/><stop stop-opacity="1" stop-color="rgb(36.154175%, 75.02594%, 70.446777%)" offset="0.226563"/><stop stop-opacity="1" stop-color="rgb(36.372375%, 75.094604%, 70.288086%)" offset="0.230469"/><stop stop-opacity="1" stop-color="rgb(36.590576%, 75.164795%, 70.13092%)" offset="0.234375"/><stop stop-opacity="1" stop-color="rgb(36.807251%, 75.233459%, 69.972229%)" offset="0.238281"/><stop stop-opacity="1" stop-color="rgb(37.025452%, 75.30365%, 69.815063%)" offset="0.242188"/><stop stop-opacity="1" stop-color="rgb(37.243652%, 75.372314%, 69.656372%)" offset="0.246094"/><stop stop-opacity="1" stop-color="rgb(37.461853%, 75.442505%, 69.499207%)" offset="0.25"/><stop stop-opacity="1" stop-color="rgb(37.680054%, 75.512695%, 69.340515%)" offset="0.253906"/><stop stop-opacity="1" stop-color="rgb(37.898254%, 75.582886%, 69.18335%)" offset="0.257812"/><stop stop-opacity="1" stop-color="rgb(38.116455%, 75.65155%, 69.024658%)" offset="0.261719"/><stop stop-opacity="1" stop-color="rgb(38.334656%, 75.721741%, 68.867493%)" offset="0.265625"/><stop stop-opacity="1" stop-color="rgb(38.552856%, 75.790405%, 68.708801%)" offset="0.269531"/><stop stop-opacity="1" stop-color="rgb(38.771057%, 75.860596%, 68.551636%)" offset="0.273438"/><stop stop-opacity="1" stop-color="rgb(38.989258%, 75.92926%, 68.39447%)" offset="0.277344"/><stop stop-opacity="1" stop-color="rgb(39.207458%, 75.999451%, 68.237305%)" offset="0.28125"/><stop stop-opacity="1" stop-color="rgb(39.425659%, 76.068115%, 68.078613%)" offset="0.285156"/><stop stop-opacity="1" stop-color="rgb(39.64386%, 76.138306%, 67.921448%)" offset="0.289062"/><stop stop-opacity="1" stop-color="rgb(39.862061%, 76.20697%, 67.762756%)" offset="0.292969"/><stop stop-opacity="1" stop-color="rgb(40.080261%, 76.277161%, 67.605591%)" offset="0.296875"/><stop stop-opacity="1" stop-color="rgb(40.298462%, 76.345825%, 67.446899%)" offset="0.300781"/><stop stop-opacity="1" stop-color="rgb(40.516663%, 76.416016%, 67.289734%)" offset="0.304688"/><stop stop-opacity="1" stop-color="rgb(40.734863%, 76.48468%, 67.131042%)" offset="0.308594"/><stop stop-opacity="1" stop-color="rgb(40.953064%, 76.554871%, 66.973877%)" offset="0.3125"/><stop stop-opacity="1" stop-color="rgb(41.171265%, 76.623535%, 66.815186%)" offset="0.316406"/><stop stop-opacity="1" stop-color="rgb(41.389465%, 76.693726%, 66.65802%)" offset="0.320312"/><stop stop-opacity="1" stop-color="rgb(41.607666%, 76.76239%, 66.499329%)" offset="0.324219"/><stop stop-opacity="1" stop-color="rgb(41.825867%, 76.832581%, 66.342163%)" offset="0.328125"/><stop stop-opacity="1" stop-color="rgb(42.044067%, 76.901245%, 66.184998%)" offset="0.332031"/><stop stop-opacity="1" stop-color="rgb(42.262268%, 76.971436%, 66.027832%)" offset="0.335938"/><stop stop-opacity="1" stop-color="rgb(42.480469%, 77.0401%, 65.869141%)" offset="0.339844"/><stop stop-opacity="1" stop-color="rgb(42.698669%, 77.110291%, 65.711975%)" offset="0.34375"/><stop stop-opacity="1" stop-color="rgb(42.91687%, 77.178955%, 65.553284%)" offset="0.347656"/><stop stop-opacity="1" stop-color="rgb(43.135071%, 77.249146%, 65.396118%)" offset="0.351562"/><stop stop-opacity="1" stop-color="rgb(43.353271%, 77.31781%, 65.237427%)" offset="0.355469"/><stop stop-opacity="1" stop-color="rgb(43.571472%, 77.388%, 65.080261%)" offset="0.359375"/><stop stop-opacity="1" stop-color="rgb(43.789673%, 77.456665%, 64.92157%)" offset="0.363281"/><stop stop-opacity="1" stop-color="rgb(44.007874%, 77.526855%, 64.764404%)" offset="0.367188"/><stop stop-opacity="1" stop-color="rgb(44.226074%, 77.59552%, 64.605713%)" offset="0.371094"/><stop stop-opacity="1" stop-color="rgb(44.444275%, 77.66571%, 64.448547%)" offset="0.375"/><stop stop-opacity="1" stop-color="rgb(44.662476%, 77.734375%, 64.291382%)" offset="0.378906"/><stop stop-opacity="1" stop-color="rgb(44.880676%, 77.804565%, 64.134216%)" offset="0.382813"/><stop stop-opacity="1" stop-color="rgb(45.098877%, 77.87323%, 63.975525%)" offset="0.386719"/><stop stop-opacity="1" stop-color="rgb(45.317078%, 77.94342%, 63.818359%)" offset="0.390625"/><stop stop-opacity="1" stop-color="rgb(45.535278%, 78.012085%, 63.659668%)" offset="0.394531"/><stop stop-opacity="1" stop-color="rgb(45.753479%, 78.082275%, 63.502502%)" offset="0.398438"/><stop stop-opacity="1" stop-color="rgb(45.97168%, 78.15094%, 63.343811%)" offset="0.402344"/><stop stop-opacity="1" stop-color="rgb(46.18988%, 78.22113%, 63.186646%)" offset="0.40625"/><stop stop-opacity="1" stop-color="rgb(46.408081%, 78.289795%, 63.027954%)" offset="0.410156"/><stop stop-opacity="1" stop-color="rgb(46.626282%, 78.359985%, 62.870789%)" offset="0.414062"/><stop stop-opacity="1" stop-color="rgb(46.844482%, 78.42865%, 62.712097%)" offset="0.417969"/><stop stop-opacity="1" stop-color="rgb(47.062683%, 78.49884%, 62.554932%)" offset="0.421875"/><stop stop-opacity="1" stop-color="rgb(47.280884%, 78.567505%, 62.39624%)" offset="0.425781"/><stop stop-opacity="1" stop-color="rgb(47.499084%, 78.637695%, 62.239075%)" offset="0.429688"/><stop stop-opacity="1" stop-color="rgb(47.717285%, 78.70636%, 62.081909%)" offset="0.433594"/><stop stop-opacity="1" stop-color="rgb(47.935486%, 78.77655%, 61.924744%)" offset="0.4375"/><stop stop-opacity="1" stop-color="rgb(48.153687%, 78.845215%, 61.766052%)" offset="0.441406"/><stop stop-opacity="1" stop-color="rgb(48.371887%, 78.915405%, 61.608887%)" offset="0.445312"/><stop stop-opacity="1" stop-color="rgb(48.590088%, 78.98407%, 61.450195%)" offset="0.449219"/><stop stop-opacity="1" stop-color="rgb(48.808289%, 79.05426%, 61.29303%)" offset="0.453125"/><stop stop-opacity="1" stop-color="rgb(49.026489%, 79.122925%, 61.134338%)" offset="0.457031"/><stop stop-opacity="1" stop-color="rgb(49.24469%, 79.193115%, 60.977173%)" offset="0.460938"/><stop stop-opacity="1" stop-color="rgb(49.462891%, 79.26178%, 60.818481%)" offset="0.464844"/><stop stop-opacity="1" stop-color="rgb(49.681091%, 79.33197%, 60.661316%)" offset="0.46875"/><stop stop-opacity="1" stop-color="rgb(49.899292%, 79.400635%, 60.502625%)" offset="0.472656"/><stop stop-opacity="1" stop-color="rgb(50.117493%, 79.470825%, 60.345459%)" offset="0.476562"/><stop stop-opacity="1" stop-color="rgb(50.335693%, 79.53949%, 60.188293%)" offset="0.480469"/><stop stop-opacity="1" stop-color="rgb(50.553894%, 79.60968%, 60.031128%)" offset="0.484375"/><stop stop-opacity="1" stop-color="rgb(50.772095%, 79.678345%, 59.872437%)" offset="0.488281"/><stop stop-opacity="1" stop-color="rgb(50.990295%, 79.748535%, 59.715271%)" offset="0.492188"/><stop stop-opacity="1" stop-color="rgb(51.20697%, 79.8172%, 59.55658%)" offset="0.496094"/><stop stop-opacity="1" stop-color="rgb(51.425171%, 79.88739%, 59.399414%)" offset="0.5"/><stop stop-opacity="1" stop-color="rgb(51.643372%, 79.956055%, 59.240723%)" offset="0.503906"/><stop stop-opacity="1" stop-color="rgb(51.861572%, 80.026245%, 59.083557%)" offset="0.507812"/><stop stop-opacity="1" stop-color="rgb(52.079773%, 80.09491%, 58.924866%)" offset="0.511719"/><stop stop-opacity="1" stop-color="rgb(52.297974%, 80.1651%, 58.7677%)" offset="0.515625"/><stop stop-opacity="1" stop-color="rgb(52.516174%, 80.233765%, 58.609009%)" offset="0.519531"/><stop stop-opacity="1" stop-color="rgb(52.734375%, 80.303955%, 58.451843%)" offset="0.523438"/><stop stop-opacity="1" stop-color="rgb(52.952576%, 80.37262%, 58.293152%)" offset="0.527344"/><stop stop-opacity="1" stop-color="rgb(53.170776%, 80.44281%, 58.135986%)" offset="0.53125"/><stop stop-opacity="1" stop-color="rgb(53.388977%, 80.511475%, 57.978821%)" offset="0.535156"/><stop stop-opacity="1" stop-color="rgb(53.607178%, 80.581665%, 57.821655%)" offset="0.539062"/><stop stop-opacity="1" stop-color="rgb(53.825378%, 80.65033%, 57.662964%)" offset="0.542969"/><stop stop-opacity="1" stop-color="rgb(54.043579%, 80.72052%, 57.505798%)" offset="0.546875"/><stop stop-opacity="1" stop-color="rgb(54.26178%, 80.789185%, 57.347107%)" offset="0.550781"/><stop stop-opacity="1" stop-color="rgb(54.47998%, 80.859375%, 57.189941%)" offset="0.554688"/><stop stop-opacity="1" stop-color="rgb(54.698181%, 80.92804%, 57.03125%)" offset="0.558594"/><stop stop-opacity="1" stop-color="rgb(54.916382%, 80.99823%, 56.874084%)" offset="0.5625"/><stop stop-opacity="1" stop-color="rgb(55.134583%, 81.066895%, 56.715393%)" offset="0.566406"/><stop stop-opacity="1" stop-color="rgb(55.352783%, 81.137085%, 56.558228%)" offset="0.570313"/><stop stop-opacity="1" stop-color="rgb(55.570984%, 81.20575%, 56.399536%)" offset="0.574219"/><stop stop-opacity="1" stop-color="rgb(55.789185%, 81.27594%, 56.242371%)" offset="0.578125"/><stop stop-opacity="1" stop-color="rgb(56.007385%, 81.344604%, 56.083679%)" offset="0.582031"/><stop stop-opacity="1" stop-color="rgb(56.225586%, 81.414795%, 55.926514%)" offset="0.585938"/><stop stop-opacity="1" stop-color="rgb(56.443787%, 81.483459%, 55.769348%)" offset="0.589844"/><stop stop-opacity="1" stop-color="rgb(56.661987%, 81.55365%, 55.612183%)" offset="0.59375"/><stop stop-opacity="1" stop-color="rgb(56.880188%, 81.622314%, 55.453491%)" offset="0.597656"/><stop stop-opacity="1" stop-color="rgb(57.098389%, 81.692505%, 55.296326%)" offset="0.601562"/><stop stop-opacity="1" stop-color="rgb(57.316589%, 81.761169%, 55.137634%)" offset="0.605469"/><stop stop-opacity="1" stop-color="rgb(57.53479%, 81.83136%, 54.980469%)" offset="0.609375"/><stop stop-opacity="1" stop-color="rgb(57.752991%, 81.900024%, 54.821777%)" offset="0.613281"/><stop stop-opacity="1" stop-color="rgb(57.971191%, 81.970215%, 54.664612%)" offset="0.617188"/><stop stop-opacity="1" stop-color="rgb(58.189392%, 82.038879%, 54.50592%)" offset="0.621094"/><stop stop-opacity="1" stop-color="rgb(58.407593%, 82.10907%, 54.348755%)" offset="0.625"/><stop stop-opacity="1" stop-color="rgb(58.625793%, 82.177734%, 54.190063%)" offset="0.628906"/><stop stop-opacity="1" stop-color="rgb(58.843994%, 82.247925%, 54.032898%)" offset="0.632812"/><stop stop-opacity="1" stop-color="rgb(59.062195%, 82.316589%, 53.875732%)" offset="0.636719"/><stop stop-opacity="1" stop-color="rgb(59.280396%, 82.38678%, 53.718567%)" offset="0.640625"/><stop stop-opacity="1" stop-color="rgb(59.498596%, 82.455444%, 53.559875%)" offset="0.644531"/><stop stop-opacity="1" stop-color="rgb(59.716797%, 82.525635%, 53.40271%)" offset="0.648438"/><stop stop-opacity="1" stop-color="rgb(59.934998%, 82.594299%, 53.244019%)" offset="0.652344"/><stop stop-opacity="1" stop-color="rgb(60.153198%, 82.66449%, 53.086853%)" offset="0.65625"/><stop stop-opacity="1" stop-color="rgb(60.371399%, 82.733154%, 52.928162%)" offset="0.660156"/><stop stop-opacity="1" stop-color="rgb(60.5896%, 82.803345%, 52.770996%)" offset="0.664063"/><stop stop-opacity="1" stop-color="rgb(60.8078%, 82.872009%, 52.612305%)" offset="0.667969"/><stop stop-opacity="1" stop-color="rgb(61.026001%, 82.9422%, 52.455139%)" offset="0.671875"/><stop stop-opacity="1" stop-color="rgb(61.244202%, 83.010864%, 52.296448%)" offset="0.675781"/><stop stop-opacity="1" stop-color="rgb(61.462402%, 83.081055%, 52.139282%)" offset="0.679688"/><stop stop-opacity="1" stop-color="rgb(61.680603%, 83.149719%, 51.980591%)" offset="0.683594"/><stop stop-opacity="1" stop-color="rgb(61.898804%, 83.21991%, 51.823425%)" offset="0.6875"/><stop stop-opacity="1" stop-color="rgb(62.117004%, 83.288574%, 51.66626%)" offset="0.691406"/><stop stop-opacity="1" stop-color="rgb(62.335205%, 83.358765%, 51.509094%)" offset="0.695312"/><stop stop-opacity="1" stop-color="rgb(62.553406%, 83.427429%, 51.350403%)" offset="0.699219"/><stop stop-opacity="1" stop-color="rgb(62.771606%, 83.49762%, 51.193237%)" offset="0.703125"/><stop stop-opacity="1" stop-color="rgb(62.989807%, 83.566284%, 51.034546%)" offset="0.707031"/><stop stop-opacity="1" stop-color="rgb(63.208008%, 83.636475%, 50.87738%)" offset="0.710938"/><stop stop-opacity="1" stop-color="rgb(63.426208%, 83.705139%, 50.718689%)" offset="0.714844"/><stop stop-opacity="1" stop-color="rgb(63.644409%, 83.77533%, 50.561523%)" offset="0.71875"/><stop stop-opacity="1" stop-color="rgb(63.86261%, 83.843994%, 50.402832%)" offset="0.722656"/><stop stop-opacity="1" stop-color="rgb(64.080811%, 83.914185%, 50.245667%)" offset="0.726562"/><stop stop-opacity="1" stop-color="rgb(64.299011%, 83.982849%, 50.086975%)" offset="0.730469"/><stop stop-opacity="1" stop-color="rgb(64.517212%, 84.05304%, 49.92981%)" offset="0.734375"/><stop stop-opacity="1" stop-color="rgb(64.735413%, 84.121704%, 49.771118%)" offset="0.738281"/><stop stop-opacity="1" stop-color="rgb(64.953613%, 84.191895%, 49.613953%)" offset="0.742188"/><stop stop-opacity="1" stop-color="rgb(65.170288%, 84.260559%, 49.456787%)" offset="0.746094"/><stop stop-opacity="1" stop-color="rgb(65.388489%, 84.33075%, 49.299622%)" offset="0.75"/><stop stop-opacity="1" stop-color="rgb(65.606689%, 84.399414%, 49.14093%)" offset="0.753906"/><stop stop-opacity="1" stop-color="rgb(65.82489%, 84.469604%, 48.983765%)" offset="0.757812"/><stop stop-opacity="1" stop-color="rgb(66.043091%, 84.538269%, 48.825073%)" offset="0.761719"/><stop stop-opacity="1" stop-color="rgb(66.261292%, 84.608459%, 48.667908%)" offset="0.765625"/><stop stop-opacity="1" stop-color="rgb(66.479492%, 84.677124%, 48.509216%)" offset="0.769531"/><stop stop-opacity="1" stop-color="rgb(66.697693%, 84.747314%, 48.352051%)" offset="0.773438"/><stop stop-opacity="1" stop-color="rgb(66.915894%, 84.815979%, 48.193359%)" offset="0.777344"/><stop stop-opacity="1" stop-color="rgb(67.134094%, 84.886169%, 48.036194%)" offset="0.78125"/><stop stop-opacity="1" stop-color="rgb(67.352295%, 84.954834%, 47.877502%)" offset="0.785156"/><stop stop-opacity="1" stop-color="rgb(67.570496%, 85.025024%, 47.720337%)" offset="0.789062"/><stop stop-opacity="1" stop-color="rgb(67.788696%, 85.093689%, 47.563171%)" offset="0.792969"/><stop stop-opacity="1" stop-color="rgb(68.006897%, 85.163879%, 47.406006%)" offset="0.796875"/><stop stop-opacity="1" stop-color="rgb(68.225098%, 85.232544%, 47.247314%)" offset="0.800781"/><stop stop-opacity="1" stop-color="rgb(68.443298%, 85.302734%, 47.090149%)" offset="0.804688"/><stop stop-opacity="1" stop-color="rgb(68.661499%, 85.371399%, 46.931458%)" offset="0.808594"/><stop stop-opacity="1" stop-color="rgb(68.8797%, 85.441589%, 46.774292%)" offset="0.8125"/><stop stop-opacity="1" stop-color="rgb(69.0979%, 85.510254%, 46.615601%)" offset="0.816406"/><stop stop-opacity="1" stop-color="rgb(69.316101%, 85.580444%, 46.458435%)" offset="0.820312"/><stop stop-opacity="1" stop-color="rgb(69.534302%, 85.650635%, 46.299744%)" offset="0.824219"/><stop stop-opacity="1" stop-color="rgb(69.752502%, 85.720825%, 46.142578%)" offset="0.828125"/><stop stop-opacity="1" stop-color="rgb(69.970703%, 85.78949%, 45.983887%)" offset="0.832031"/><stop stop-opacity="1" stop-color="rgb(70.188904%, 85.85968%, 45.826721%)" offset="0.835938"/><stop stop-opacity="1" stop-color="rgb(70.407104%, 85.928345%, 45.66803%)" offset="0.839844"/><stop stop-opacity="1" stop-color="rgb(70.625305%, 85.998535%, 45.510864%)" offset="0.84375"/><stop stop-opacity="1" stop-color="rgb(70.843506%, 86.0672%, 45.353699%)" offset="0.847656"/><stop stop-opacity="1" stop-color="rgb(71.061707%, 86.13739%, 45.196533%)" offset="0.851562"/><stop stop-opacity="1" stop-color="rgb(71.279907%, 86.206055%, 45.037842%)" offset="0.855469"/><stop stop-opacity="1" stop-color="rgb(71.498108%, 86.276245%, 44.880676%)" offset="0.859375"/><stop stop-opacity="1" stop-color="rgb(71.716309%, 86.34491%, 44.721985%)" offset="0.863281"/><stop stop-opacity="1" stop-color="rgb(71.934509%, 86.4151%, 44.564819%)" offset="0.867188"/><stop stop-opacity="1" stop-color="rgb(72.15271%, 86.483765%, 44.406128%)" offset="0.871094"/><stop stop-opacity="1" stop-color="rgb(72.370911%, 86.553955%, 44.248962%)" offset="0.875"/><stop stop-opacity="1" stop-color="rgb(72.589111%, 86.62262%, 44.090271%)" offset="0.878906"/><stop stop-opacity="1" stop-color="rgb(72.807312%, 86.69281%, 43.933105%)" offset="0.882812"/><stop stop-opacity="1" stop-color="rgb(73.025513%, 86.761475%, 43.774414%)" offset="0.886719"/><stop stop-opacity="1" stop-color="rgb(73.243713%, 86.831665%, 43.617249%)" offset="0.890625"/><stop stop-opacity="1" stop-color="rgb(73.461914%, 86.90033%, 43.460083%)" offset="0.894531"/><stop stop-opacity="1" stop-color="rgb(73.680115%, 86.97052%, 43.302917%)" offset="0.898438"/><stop stop-opacity="1" stop-color="rgb(73.898315%, 87.039185%, 43.144226%)" offset="0.902344"/><stop stop-opacity="1" stop-color="rgb(74.116516%, 87.109375%, 42.987061%)" offset="0.90625"/><stop stop-opacity="1" stop-color="rgb(74.334717%, 87.17804%, 42.828369%)" offset="0.910156"/><stop stop-opacity="1" stop-color="rgb(74.552917%, 87.24823%, 42.671204%)" offset="0.914063"/><stop stop-opacity="1" stop-color="rgb(74.771118%, 87.316895%, 42.512512%)" offset="0.917969"/><stop stop-opacity="1" stop-color="rgb(74.989319%, 87.387085%, 42.355347%)" offset="0.921875"/><stop stop-opacity="1" stop-color="rgb(75.20752%, 87.45575%, 42.196655%)" offset="0.925781"/><stop stop-opacity="1" stop-color="rgb(75.42572%, 87.52594%, 42.03949%)" offset="0.929688"/><stop stop-opacity="1" stop-color="rgb(75.643921%, 87.594604%, 41.880798%)" offset="0.933594"/><stop stop-opacity="1" stop-color="rgb(75.862122%, 87.664795%, 41.723633%)" offset="0.9375"/><stop stop-opacity="1" stop-color="rgb(76.080322%, 87.733459%, 41.564941%)" offset="0.941406"/><stop stop-opacity="1" stop-color="rgb(76.298523%, 87.80365%, 41.407776%)" offset="0.945312"/><stop stop-opacity="1" stop-color="rgb(76.516724%, 87.872314%, 41.25061%)" offset="0.949219"/><stop stop-opacity="1" stop-color="rgb(76.734924%, 87.942505%, 41.093445%)" offset="0.953125"/><stop stop-opacity="1" stop-color="rgb(76.953125%, 88.011169%, 40.934753%)" offset="0.957031"/><stop stop-opacity="1" stop-color="rgb(77.171326%, 88.08136%, 40.777588%)" offset="0.960938"/><stop stop-opacity="1" stop-color="rgb(77.389526%, 88.150024%, 40.618896%)" offset="0.964844"/><stop stop-opacity="1" stop-color="rgb(77.607727%, 88.220215%, 40.461731%)" offset="0.96875"/><stop stop-opacity="1" stop-color="rgb(77.825928%, 88.288879%, 40.30304%)" offset="0.972656"/><stop stop-opacity="1" stop-color="rgb(78.044128%, 88.35907%, 40.145874%)" offset="0.976562"/><stop stop-opacity="1" stop-color="rgb(78.262329%, 88.427734%, 39.987183%)" offset="0.980469"/><stop stop-opacity="1" stop-color="rgb(78.48053%, 88.497925%, 39.830017%)" offset="0.984375"/><stop stop-opacity="1" stop-color="rgb(78.639221%, 88.548279%, 39.71405%)" offset="1"/></linearGradient><clipPath id="id14"><path d="M 289.214844 187.5 L 302.714844 187.5 L 302.714844 195 L 289.214844 195 Z M 289.214844 187.5 " clip-rule="nonzero"/></clipPath></defs><g clip-path="url(#id2)"><g clip-path="url(#id3)"><g clip-path="url(#id4)"><path fill="rgb(40.388489%, 86.268616%, 100%)" d="M 161.265625 200.539062 C 158.09375 203.710938 152.964844 203.722656 149.800781 200.558594 L 138.078125 188.835938 C 134.027344 184.785156 134.039062 178.195312 138.105469 174.128906 L 149.867188 162.367188 C 153.039062 159.191406 158.167969 159.183594 161.332031 162.347656 C 164.496094 165.511719 164.488281 170.640625 161.3125 173.8125 L 153.667969 181.457031 L 161.285156 189.074219 C 164.449219 192.234375 164.429688 197.375 161.265625 200.539062 Z M 161.265625 200.539062 " fill-opacity="1" fill-rule="nonzero"/></g></g></g><g clip-path="url(#id5)"><g clip-path="url(#id6)"><g clip-path="url(#id7)"><path fill="rgb(78.819275%, 88.62915%, 39.608765%)" d="M 123.171875 162.296875 C 126.347656 159.121094 131.476562 159.113281 134.640625 162.277344 L 142.253906 169.894531 L 146.359375 173.996094 C 150.410156 178.050781 150.398438 184.640625 146.335938 188.707031 L 142.214844 192.824219 L 134.574219 200.46875 C 131.398438 203.640625 126.269531 203.652344 123.105469 200.488281 C 119.945312 197.324219 119.953125 192.195312 123.125 189.023438 L 130.769531 181.378906 L 123.152344 173.761719 C 119.988281 170.601562 120 165.472656 123.171875 162.296875 Z M 123.171875 162.296875 " fill-opacity="1" fill-rule="nonzero"/></g></g></g><g clip-path="url(#id8)"><g clip-path="url(#id9)"><g clip-path="url(#id10)"><path fill="rgb(15.289307%, 12.548828%, 100%)" d="M 146.335938 188.707031 L 142.214844 192.824219 L 142.140625 192.898438 L 138.078125 188.835938 C 134.027344 184.785156 134.039062 178.195312 138.105469 174.128906 L 142.296875 169.9375 L 146.359375 173.996094 C 150.410156 178.050781 150.398438 184.640625 146.335938 188.707031 Z M 146.335938 188.707031 " fill-opacity="1" fill-rule="nonzero"/></g></g></g><g clip-path="url(#id11)"><g clip-path="url(#id12)"><path fill="url(#id13)" d="M 104.226562 143.230469 L 104.226562 219.730469 L 180.726562 219.730469 L 180.726562 143.230469 Z M 104.226562 143.230469 " fill-rule="nonzero"/></g></g><g clip-path="url(#id14)"><path fill="rgb(23.529053%, 70.979309%, 79.60968%)" d="M 291 189.011719 L 289.902344 189.011719 C 289.417969 189.011719 289.214844 188.652344 289.214844 188.300781 C 289.214844 187.9375 289.46875 187.585938 289.902344 187.585938 L 293.613281 187.585938 C 294.046875 187.585938 294.300781 187.9375 294.300781 188.300781 C 294.300781 188.652344 294.097656 189.011719 293.613281 189.011719 L 292.515625 189.011719 L 292.515625 194.203125 C 292.515625 194.71875 292.191406 195.007812 291.757812 195.007812 C 291.324219 195.007812 291 194.71875 291 194.203125 Z M 295.367188 188.320312 C 295.429688 187.949219 295.824219 187.523438 296.359375 187.523438 C 296.863281 187.523438 297.253906 187.898438 297.367188 188.269531 L 298.554688 192.363281 L 298.578125 192.363281 L 299.765625 188.269531 C 299.878906 187.894531 300.269531 187.523438 300.773438 187.523438 C 301.308594 187.523438 301.703125 187.949219 301.765625 188.320312 L 302.703125 194.089844 C 302.710938 194.152344 302.710938 194.210938 302.710938 194.265625 C 302.710938 194.71875 302.390625 195.007812 301.984375 195.007812 C 301.472656 195.007812 301.269531 194.769531 301.199219 194.285156 L 300.605469 190.078125 L 300.582031 190.078125 L 299.375 194.410156 C 299.304688 194.65625 299.113281 195.007812 298.566406 195.007812 C 298.023438 195.007812 297.832031 194.65625 297.761719 194.410156 L 296.550781 190.078125 L 296.53125 190.078125 L 295.933594 194.285156 C 295.863281 194.773438 295.660156 195.007812 295.148438 195.007812 C 294.742188 195.007812 294.421875 194.71875 294.421875 194.265625 C 294.421875 194.210938 294.421875 194.152344 294.429688 194.089844 Z M 295.367188 188.320312 " fill-opacity="1" fill-rule="nonzero"/></g><g fill="rgb(32.159424%, 44.309998%, 100%)" fill-opacity="1"><g transform="translate(187.499992, 176.401892)"><g><path d="M 14.25 0 L 14.390625 -5.96875 L 13.75 -5.96875 L 13.1875 -3.859375 C 12.738281 -2.128906 11.972656 -1.128906 10.890625 -0.859375 C 10.640625 -0.796875 10.375 -0.765625 10.09375 -0.765625 L 6.234375 -0.765625 L 6.234375 -16.890625 L 8.734375 -16.890625 L 8.734375 -17.65625 L 1.0625 -17.65625 L 1.0625 -16.890625 L 3.421875 -16.890625 L 3.421875 -0.765625 L 1.0625 -0.765625 L 1.0625 0 Z M 14.25 0 "/></g></g></g><g fill="rgb(32.159424%, 44.309998%, 100%)" fill-opacity="1"><g transform="translate(201.520384, 176.401892)"><g><path d="M 6.96875 -0.734375 L 5.59375 -0.734375 L 5.59375 -12.53125 L 0.859375 -12.53125 L 0.859375 -11.796875 L 3.09375 -11.796875 L 3.09375 -2.46875 C 3.09375 -1.570312 2.785156 -1.035156 2.171875 -0.859375 C 1.878906 -0.773438 1.441406 -0.734375 0.859375 -0.734375 L 0.859375 0 L 7.71875 0 C 7.71875 -0.425781 7.566406 -0.660156 7.265625 -0.703125 C 7.191406 -0.722656 7.09375 -0.734375 6.96875 -0.734375 Z M 5.921875 -16.75 C 5.921875 -17.457031 5.601562 -17.976562 4.96875 -18.3125 C 4.71875 -18.425781 4.460938 -18.484375 4.203125 -18.484375 C 3.484375 -18.484375 2.96875 -18.160156 2.65625 -17.515625 C 2.53125 -17.253906 2.46875 -17 2.46875 -16.75 C 2.46875 -16 2.800781 -15.46875 3.46875 -15.15625 C 3.707031 -15.0625 3.953125 -15.015625 4.203125 -15.015625 C 4.910156 -15.015625 5.421875 -15.335938 5.734375 -15.984375 C 5.859375 -16.234375 5.921875 -16.488281 5.921875 -16.75 Z M 5.921875 -16.75 "/></g></g></g><g fill="rgb(32.159424%, 44.309998%, 100%)" fill-opacity="1"><g transform="translate(209.450265, 176.401892)"><g><path d="M 0.5625 -11.78125 L 2.625 -11.78125 L 2.625 -3.65625 C 2.757812 -1.082031 3.945312 0.242188 6.1875 0.328125 C 8.03125 0.328125 9.175781 -0.78125 9.625 -3 C 9.625 -3.019531 9.625 -3.039062 9.625 -3.0625 L 8.828125 -3.203125 C 8.421875 -1.460938 7.71875 -0.582031 6.71875 -0.5625 C 5.675781 -0.601562 5.144531 -1.359375 5.125 -2.828125 L 5.125 -11.78125 L 9.5625 -11.78125 L 9.5625 -12.515625 L 5.125 -12.515625 L 5.125 -15.921875 L 2.625 -15.3125 L 2.625 -12.515625 L 0.5625 -12.515625 Z M 0.5625 -11.78125 "/></g></g></g><g fill="rgb(32.159424%, 44.309998%, 100%)" fill-opacity="1"><g transform="translate(218.615901, 176.401892)"><g><path d="M 6.625 -0.734375 L 5.453125 -0.734375 L 5.453125 -7.21875 C 5.484375 -8.914062 6.039062 -10.171875 7.125 -10.984375 C 7.613281 -11.347656 8.113281 -11.53125 8.625 -11.53125 C 9.5625 -11.53125 10.207031 -10.992188 10.5625 -9.921875 C 10.695312 -9.472656 10.765625 -8.972656 10.765625 -8.421875 L 10.765625 -2.46875 C 10.765625 -1.582031 10.570312 -1.054688 10.1875 -0.890625 C 9.90625 -0.785156 9.472656 -0.734375 8.890625 -0.734375 L 8.890625 0 L 15.1875 0 C 15.1875 -0.425781 15.039062 -0.660156 14.75 -0.703125 C 14.664062 -0.722656 14.566406 -0.734375 14.453125 -0.734375 L 13.296875 -0.734375 L 13.296875 -8.421875 C 13.617188 -9.847656 14.289062 -10.816406 15.3125 -11.328125 C 15.65625 -11.503906 16 -11.59375 16.34375 -11.59375 C 17.320312 -11.59375 18.003906 -11.070312 18.390625 -10.03125 C 18.566406 -9.5625 18.65625 -9.023438 18.65625 -8.421875 L 18.65625 -2.46875 C 18.65625 -1.582031 18.453125 -1.054688 18.046875 -0.890625 C 17.765625 -0.785156 17.332031 -0.734375 16.75 -0.734375 L 16.75 0 L 23.28125 0 C 23.28125 -0.425781 23.132812 -0.660156 22.84375 -0.703125 C 22.757812 -0.722656 22.660156 -0.734375 22.546875 -0.734375 L 21.15625 -0.734375 L 21.15625 -8.125 C 21.15625 -10.101562 20.5 -11.503906 19.1875 -12.328125 C 18.601562 -12.679688 17.96875 -12.859375 17.28125 -12.859375 C 15.632812 -12.859375 14.347656 -12.054688 13.421875 -10.453125 C 13.304688 -10.234375 13.195312 -10.003906 13.09375 -9.765625 C 12.71875 -11.242188 11.941406 -12.207031 10.765625 -12.65625 C 10.421875 -12.789062 10.0625 -12.859375 9.6875 -12.859375 C 8.195312 -12.859375 6.976562 -12.210938 6.03125 -10.921875 C 5.800781 -10.566406 5.597656 -10.191406 5.421875 -9.796875 L 5.296875 -12.53125 L 0.828125 -12.53125 L 0.828125 -11.796875 L 2.9375 -11.796875 L 2.9375 -2.46875 C 2.9375 -1.570312 2.664062 -1.035156 2.125 -0.859375 C 1.820312 -0.773438 1.390625 -0.734375 0.828125 -0.734375 L 0.828125 0 L 7.328125 0 C 7.328125 -0.425781 7.191406 -0.660156 6.921875 -0.703125 C 6.816406 -0.722656 6.71875 -0.734375 6.625 -0.734375 Z M 6.625 -0.734375 "/></g></g></g><g fill="rgb(32.159424%, 44.309998%, 100%)" fill-opacity="1"><g transform="translate(241.963308, 176.401892)"><g><path d="M 11.484375 0.296875 C 12.890625 0.296875 13.734375 -0.410156 14.015625 -1.828125 C 14.046875 -2.117188 14.070312 -2.429688 14.09375 -2.765625 L 13.328125 -2.796875 C 13.191406 -1.378906 12.820312 -0.660156 12.21875 -0.640625 C 11.726562 -0.679688 11.472656 -1.1875 11.453125 -2.15625 L 11.453125 -8.359375 C 11.410156 -11.335938 9.789062 -12.835938 6.59375 -12.859375 C 4.3125 -12.859375 2.800781 -12.335938 2.0625 -11.296875 C 1.820312 -10.960938 1.703125 -10.628906 1.703125 -10.296875 C 1.703125 -9.671875 2 -9.289062 2.59375 -9.15625 C 2.726562 -9.132812 2.851562 -9.125 2.96875 -9.125 C 3.5 -9.125 3.882812 -9.4375 4.125 -10.0625 C 4.394531 -10.832031 4.5625 -11.265625 4.625 -11.359375 C 5 -11.867188 5.554688 -12.125 6.296875 -12.125 C 8.046875 -12.082031 8.929688 -11.0625 8.953125 -9.0625 L 8.953125 -7.21875 C 4.066406 -7.195312 1.414062 -6.066406 1 -3.828125 C 0.957031 -3.609375 0.9375 -3.375 0.9375 -3.125 C 0.9375 -1.570312 1.613281 -0.53125 2.96875 0 C 3.476562 0.195312 4.03125 0.296875 4.625 0.296875 C 6.050781 0.296875 7.238281 -0.191406 8.1875 -1.171875 C 8.539062 -1.546875 8.804688 -1.953125 8.984375 -2.390625 C 9.234375 -0.617188 10.066406 0.273438 11.484375 0.296875 Z M 5.703125 -0.90625 C 4.472656 -0.90625 3.769531 -1.59375 3.59375 -2.96875 C 3.570312 -3.164062 3.5625 -3.375 3.5625 -3.59375 C 3.5625 -4.90625 4.285156 -5.738281 5.734375 -6.09375 C 6.503906 -6.269531 7.578125 -6.367188 8.953125 -6.390625 L 8.953125 -3.9375 C 8.617188 -2.582031 7.910156 -1.648438 6.828125 -1.140625 C 6.429688 -0.984375 6.054688 -0.90625 5.703125 -0.90625 Z M 5.703125 -0.90625 "/></g></g></g><g fill="rgb(32.159424%, 44.309998%, 100%)" fill-opacity="1"><g transform="translate(255.601203, 176.401892)"><g><path d="M 5.625 -0.5 C 6.976562 -0.5 7.859375 -0.921875 8.265625 -1.765625 C 8.410156 -2.035156 8.484375 -2.320312 8.484375 -2.625 C 8.484375 -3.488281 7.875 -4.222656 6.65625 -4.828125 C 6.394531 -4.960938 5.972656 -5.160156 5.390625 -5.421875 C 3.816406 -6.085938 2.765625 -6.710938 2.234375 -7.296875 C 1.679688 -7.921875 1.40625 -8.65625 1.40625 -9.5 C 1.40625 -10.894531 2.171875 -11.890625 3.703125 -12.484375 C 4.429688 -12.734375 5.21875 -12.859375 6.0625 -12.859375 C 7.394531 -12.859375 8.523438 -12.582031 9.453125 -12.03125 C 9.453125 -12.601562 9.585938 -12.929688 9.859375 -13.015625 C 9.953125 -13.035156 10.082031 -13.046875 10.25 -13.046875 L 10.25 -9.359375 L 9.453125 -9.359375 C 9.410156 -11.160156 8.410156 -12.070312 6.453125 -12.09375 C 5.035156 -12.09375 4.148438 -11.660156 3.796875 -10.796875 C 3.710938 -10.566406 3.671875 -10.332031 3.671875 -10.09375 C 3.671875 -9.25 4.269531 -8.535156 5.46875 -7.953125 C 5.75 -7.804688 6.171875 -7.617188 6.734375 -7.390625 C 8.328125 -6.742188 9.390625 -6.132812 9.921875 -5.5625 C 10.484375 -4.914062 10.765625 -4.148438 10.765625 -3.265625 C 10.765625 -1.640625 9.914062 -0.5625 8.21875 -0.03125 C 7.550781 0.1875 6.820312 0.296875 6.03125 0.296875 C 4.5625 0.273438 3.285156 -0.0664062 2.203125 -0.734375 C 2.203125 -0.222656 2.078125 0.0664062 1.828125 0.140625 C 1.703125 0.160156 1.5625 0.171875 1.40625 0.171875 L 1.40625 -4.296875 L 2.265625 -4.296875 C 2.304688 -1.785156 3.425781 -0.519531 5.625 -0.5 Z M 5.625 -0.5 "/></g></g></g><g fill="rgb(32.159424%, 44.309998%, 100%)" fill-opacity="1"><g transform="translate(187.499992, 203.40189)"><g><path d="M 14.484375 -4.6875 C 14.484375 -6.40625 13.539062 -7.804688 11.65625 -8.890625 C 11.34375 -9.085938 10.222656 -9.617188 8.296875 -10.484375 C 6.566406 -11.242188 5.476562 -12.023438 5.03125 -12.828125 C 4.8125 -13.265625 4.703125 -13.71875 4.703125 -14.1875 C 4.703125 -15.445312 5.3125 -16.320312 6.53125 -16.8125 C 7.0625 -17.019531 7.640625 -17.125 8.265625 -17.125 C 9.898438 -17.125 11.140625 -16.566406 11.984375 -15.453125 C 12.566406 -14.691406 12.847656 -13.75 12.828125 -12.625 L 13.78125 -12.625 L 13.78125 -17.8125 C 13.269531 -17.8125 12.984375 -17.644531 12.921875 -17.3125 C 12.878906 -17.164062 12.859375 -17 12.859375 -16.8125 C 11.410156 -17.570312 9.8125 -17.953125 8.0625 -17.953125 C 5.925781 -17.953125 4.257812 -17.363281 3.0625 -16.1875 C 2.257812 -15.382812 1.859375 -14.421875 1.859375 -13.296875 C 1.859375 -11.648438 2.769531 -10.304688 4.59375 -9.265625 C 4.925781 -9.078125 6.046875 -8.550781 7.953125 -7.6875 C 9.691406 -6.894531 10.796875 -6.085938 11.265625 -5.265625 C 11.503906 -4.835938 11.625 -4.367188 11.625 -3.859375 C 11.625 -2.484375 10.976562 -1.5 9.6875 -0.90625 C 9.070312 -0.65625 8.40625 -0.53125 7.6875 -0.53125 C 4.84375 -0.53125 3.191406 -2.171875 2.734375 -5.453125 C 2.710938 -5.660156 2.691406 -5.863281 2.671875 -6.0625 L 1.734375 -6.0625 L 1.734375 0.0625 C 2.203125 0.0625 2.488281 -0.078125 2.59375 -0.359375 C 2.632812 -0.535156 2.65625 -0.816406 2.65625 -1.203125 C 4.164062 -0.203125 5.898438 0.296875 7.859375 0.296875 C 10.128906 0.296875 11.894531 -0.3125 13.15625 -1.53125 C 14.039062 -2.414062 14.484375 -3.46875 14.484375 -4.6875 Z M 14.484375 -4.6875 "/></g></g></g><g fill="rgb(32.159424%, 44.309998%, 100%)" fill-opacity="1"><g transform="translate(202.785563, 203.40189)"><g><path d="M 3.171875 4.6875 C 2.859375 4.6875 2.613281 4.4375 2.4375 3.9375 C 2.207031 3.332031 1.984375 2.960938 1.765625 2.828125 C 1.585938 2.710938 1.378906 2.65625 1.140625 2.65625 C 0.492188 2.65625 0.113281 2.925781 0 3.46875 C -0.0195312 3.570312 -0.03125 3.660156 -0.03125 3.734375 C -0.03125 4.460938 0.398438 5.003906 1.265625 5.359375 C 1.691406 5.535156 2.144531 5.625 2.625 5.625 C 4.164062 5.625 5.507812 4.679688 6.65625 2.796875 C 7.101562 2.046875 7.546875 1.144531 7.984375 0.09375 L 12.328125 -10.796875 C 12.523438 -11.347656 12.753906 -11.664062 13.015625 -11.75 C 13.128906 -11.769531 13.265625 -11.78125 13.421875 -11.78125 C 13.835938 -11.78125 14.070312 -11.882812 14.125 -12.09375 C 14.144531 -12.21875 14.15625 -12.363281 14.15625 -12.53125 L 9.6875 -12.53125 L 9.6875 -11.78125 L 11.828125 -11.78125 L 8.15625 -2.625 L 4.234375 -11.78125 L 6.1875 -11.78125 L 6.1875 -12.53125 L 0.203125 -12.53125 L 0.203125 -11.78125 L 1.59375 -11.78125 L 6.96875 0.125 C 5.914062 2.65625 4.914062 4.125 3.96875 4.53125 C 3.695312 4.632812 3.429688 4.6875 3.171875 4.6875 Z M 3.171875 4.6875 "/></g></g></g><g fill="rgb(32.159424%, 44.309998%, 100%)" fill-opacity="1"><g transform="translate(216.452882, 203.40189)"><g><path d="M 5.625 -0.5 C 6.976562 -0.5 7.859375 -0.921875 8.265625 -1.765625 C 8.410156 -2.035156 8.484375 -2.320312 8.484375 -2.625 C 8.484375 -3.488281 7.875 -4.222656 6.65625 -4.828125 C 6.394531 -4.960938 5.972656 -5.160156 5.390625 -5.421875 C 3.816406 -6.085938 2.765625 -6.710938 2.234375 -7.296875 C 1.679688 -7.921875 1.40625 -8.65625 1.40625 -9.5 C 1.40625 -10.894531 2.171875 -11.890625 3.703125 -12.484375 C 4.429688 -12.734375 5.21875 -12.859375 6.0625 -12.859375 C 7.394531 -12.859375 8.523438 -12.582031 9.453125 -12.03125 C 9.453125 -12.601562 9.585938 -12.929688 9.859375 -13.015625 C 9.953125 -13.035156 10.082031 -13.046875 10.25 -13.046875 L 10.25 -9.359375 L 9.453125 -9.359375 C 9.410156 -11.160156 8.410156 -12.070312 6.453125 -12.09375 C 5.035156 -12.09375 4.148438 -11.660156 3.796875 -10.796875 C 3.710938 -10.566406 3.671875 -10.332031 3.671875 -10.09375 C 3.671875 -9.25 4.269531 -8.535156 5.46875 -7.953125 C 5.75 -7.804688 6.171875 -7.617188 6.734375 -7.390625 C 8.328125 -6.742188 9.390625 -6.132812 9.921875 -5.5625 C 10.484375 -4.914062 10.765625 -4.148438 10.765625 -3.265625 C 10.765625 -1.640625 9.914062 -0.5625 8.21875 -0.03125 C 7.550781 0.1875 6.820312 0.296875 6.03125 0.296875 C 4.5625 0.273438 3.285156 -0.0664062 2.203125 -0.734375 C 2.203125 -0.222656 2.078125 0.0664062 1.828125 0.140625 C 1.703125 0.160156 1.5625 0.171875 1.40625 0.171875 L 1.40625 -4.296875 L 2.265625 -4.296875 C 2.304688 -1.785156 3.425781 -0.519531 5.625 -0.5 Z M 5.625 -0.5 "/></g></g></g><g fill="rgb(32.159424%, 44.309998%, 100%)" fill-opacity="1"><g transform="translate(227.736956, 203.40189)"><g><path d="M 0.5625 -11.78125 L 2.625 -11.78125 L 2.625 -3.65625 C 2.757812 -1.082031 3.945312 0.242188 6.1875 0.328125 C 8.03125 0.328125 9.175781 -0.78125 9.625 -3 C 9.625 -3.019531 9.625 -3.039062 9.625 -3.0625 L 8.828125 -3.203125 C 8.421875 -1.460938 7.71875 -0.582031 6.71875 -0.5625 C 5.675781 -0.601562 5.144531 -1.359375 5.125 -2.828125 L 5.125 -11.78125 L 9.5625 -11.78125 L 9.5625 -12.515625 L 5.125 -12.515625 L 5.125 -15.921875 L 2.625 -15.3125 L 2.625 -12.515625 L 0.5625 -12.515625 Z M 0.5625 -11.78125 "/></g></g></g><g fill="rgb(32.159424%, 44.309998%, 100%)" fill-opacity="1"><g transform="translate(236.902594, 203.40189)"><g><path d="M 7.359375 -12.125 C 8.691406 -12.125 9.554688 -11.515625 9.953125 -10.296875 C 10.066406 -9.929688 10.125 -9.539062 10.125 -9.125 C 10.125 -8.164062 9.691406 -7.578125 8.828125 -7.359375 C 8.335938 -7.242188 7.660156 -7.195312 6.796875 -7.21875 L 3.921875 -7.296875 C 3.992188 -9.609375 4.695312 -11.109375 6.03125 -11.796875 C 6.445312 -12.015625 6.890625 -12.125 7.359375 -12.125 Z M 12.5625 -2.859375 L 11.828125 -3.125 C 11.203125 -1.75 10.203125 -0.914062 8.828125 -0.625 C 8.515625 -0.5625 8.210938 -0.53125 7.921875 -0.53125 C 5.835938 -0.53125 4.5625 -1.84375 4.09375 -4.46875 C 3.988281 -5.082031 3.929688 -5.75 3.921875 -6.46875 L 7.296875 -6.421875 C 9.804688 -6.378906 11.40625 -6.632812 12.09375 -7.1875 C 12.550781 -7.570312 12.78125 -8.097656 12.78125 -8.765625 C 12.78125 -10.160156 12.070312 -11.257812 10.65625 -12.0625 C 9.675781 -12.59375 8.554688 -12.859375 7.296875 -12.859375 C 4.921875 -12.859375 3.175781 -11.90625 2.0625 -10 C 1.4375 -8.90625 1.125 -7.640625 1.125 -6.203125 C 1.125 -3.691406 2.035156 -1.847656 3.859375 -0.671875 C 4.898438 -0.0234375 6.078125 0.296875 7.390625 0.296875 C 9.585938 0.296875 11.1875 -0.5 12.1875 -2.09375 C 12.320312 -2.34375 12.445312 -2.597656 12.5625 -2.859375 Z M 12.5625 -2.859375 "/></g></g></g><g fill="rgb(32.159424%, 44.309998%, 100%)" fill-opacity="1"><g transform="translate(250.010879, 203.40189)"><g><path d="M 6.625 -0.734375 L 5.453125 -0.734375 L 5.453125 -7.21875 C 5.484375 -8.914062 6.039062 -10.171875 7.125 -10.984375 C 7.613281 -11.347656 8.113281 -11.53125 8.625 -11.53125 C 9.5625 -11.53125 10.207031 -10.992188 10.5625 -9.921875 C 10.695312 -9.472656 10.765625 -8.972656 10.765625 -8.421875 L 10.765625 -2.46875 C 10.765625 -1.582031 10.570312 -1.054688 10.1875 -0.890625 C 9.90625 -0.785156 9.472656 -0.734375 8.890625 -0.734375 L 8.890625 0 L 15.1875 0 C 15.1875 -0.425781 15.039062 -0.660156 14.75 -0.703125 C 14.664062 -0.722656 14.566406 -0.734375 14.453125 -0.734375 L 13.296875 -0.734375 L 13.296875 -8.421875 C 13.617188 -9.847656 14.289062 -10.816406 15.3125 -11.328125 C 15.65625 -11.503906 16 -11.59375 16.34375 -11.59375 C 17.320312 -11.59375 18.003906 -11.070312 18.390625 -10.03125 C 18.566406 -9.5625 18.65625 -9.023438 18.65625 -8.421875 L 18.65625 -2.46875 C 18.65625 -1.582031 18.453125 -1.054688 18.046875 -0.890625 C 17.765625 -0.785156 17.332031 -0.734375 16.75 -0.734375 L 16.75 0 L 23.28125 0 C 23.28125 -0.425781 23.132812 -0.660156 22.84375 -0.703125 C 22.757812 -0.722656 22.660156 -0.734375 22.546875 -0.734375 L 21.15625 -0.734375 L 21.15625 -8.125 C 21.15625 -10.101562 20.5 -11.503906 19.1875 -12.328125 C 18.601562 -12.679688 17.96875 -12.859375 17.28125 -12.859375 C 15.632812 -12.859375 14.347656 -12.054688 13.421875 -10.453125 C 13.304688 -10.234375 13.195312 -10.003906 13.09375 -9.765625 C 12.71875 -11.242188 11.941406 -12.207031 10.765625 -12.65625 C 10.421875 -12.789062 10.0625 -12.859375 9.6875 -12.859375 C 8.195312 -12.859375 6.976562 -12.210938 6.03125 -10.921875 C 5.800781 -10.566406 5.597656 -10.191406 5.421875 -9.796875 L 5.296875 -12.53125 L 0.828125 -12.53125 L 0.828125 -11.796875 L 2.9375 -11.796875 L 2.9375 -2.46875 C 2.9375 -1.570312 2.664062 -1.035156 2.125 -0.859375 C 1.820312 -0.773438 1.390625 -0.734375 0.828125 -0.734375 L 0.828125 0 L 7.328125 0 C 7.328125 -0.425781 7.191406 -0.660156 6.921875 -0.703125 C 6.816406 -0.722656 6.71875 -0.734375 6.625 -0.734375 Z M 6.625 -0.734375 "/></g></g></g><g fill="rgb(32.159424%, 44.309998%, 100%)" fill-opacity="1"><g transform="translate(273.358284, 203.40189)"><g><path d="M 5.625 -0.5 C 6.976562 -0.5 7.859375 -0.921875 8.265625 -1.765625 C 8.410156 -2.035156 8.484375 -2.320312 8.484375 -2.625 C 8.484375 -3.488281 7.875 -4.222656 6.65625 -4.828125 C 6.394531 -4.960938 5.972656 -5.160156 5.390625 -5.421875 C 3.816406 -6.085938 2.765625 -6.710938 2.234375 -7.296875 C 1.679688 -7.921875 1.40625 -8.65625 1.40625 -9.5 C 1.40625 -10.894531 2.171875 -11.890625 3.703125 -12.484375 C 4.429688 -12.734375 5.21875 -12.859375 6.0625 -12.859375 C 7.394531 -12.859375 8.523438 -12.582031 9.453125 -12.03125 C 9.453125 -12.601562 9.585938 -12.929688 9.859375 -13.015625 C 9.953125 -13.035156 10.082031 -13.046875 10.25 -13.046875 L 10.25 -9.359375 L 9.453125 -9.359375 C 9.410156 -11.160156 8.410156 -12.070312 6.453125 -12.09375 C 5.035156 -12.09375 4.148438 -11.660156 3.796875 -10.796875 C 3.710938 -10.566406 3.671875 -10.332031 3.671875 -10.09375 C 3.671875 -9.25 4.269531 -8.535156 5.46875 -7.953125 C 5.75 -7.804688 6.171875 -7.617188 6.734375 -7.390625 C 8.328125 -6.742188 9.390625 -6.132812 9.921875 -5.5625 C 10.484375 -4.914062 10.765625 -4.148438 10.765625 -3.265625 C 10.765625 -1.640625 9.914062 -0.5625 8.21875 -0.03125 C 7.550781 0.1875 6.820312 0.296875 6.03125 0.296875 C 4.5625 0.273438 3.285156 -0.0664062 2.203125 -0.734375 C 2.203125 -0.222656 2.078125 0.0664062 1.828125 0.140625 C 1.703125 0.160156 1.5625 0.171875 1.40625 0.171875 L 1.40625 -4.296875 L 2.265625 -4.296875 C 2.304688 -1.785156 3.425781 -0.519531 5.625 -0.5 Z M 5.625 -0.5 "/></g></g></g></svg>